<svg width="600" height="84" viewBox="0 0 600 84" fill="none" xmlns="http://www.w3.org/2000/svg">
<g opacity="0.6">
<path d="M43.1998 22.3125C43.1998 33.1856 34.3186 42 23.3631 42H3.52637V22.3125C3.52637 11.4394 12.4076 2.625 23.3631 2.625C34.3186 2.625 43.1998 11.4394 43.1998 22.3125Z" fill="black"/>
<path d="M43.2 61.6875C43.2 50.8144 52.0812 42 63.0367 42H82.8734V61.6875C82.8734 72.5606 73.9922 81.375 63.0367 81.375C52.0812 81.375 43.2 72.5606 43.2 61.6875Z" fill="black"/>
<path d="M3.52637 61.6875C3.52637 72.5606 12.4076 81.375 23.3631 81.375H43.1998V61.6875C43.1998 50.8144 34.3186 42 23.3631 42C12.4076 42 3.52637 50.8144 3.52637 61.6875Z" fill="black"/>
<path d="M82.8734 22.3125C82.8734 11.4394 73.9922 2.625 63.0367 2.625H43.2V22.3125C43.2 33.1856 52.0812 42 63.0367 42C73.9922 42 82.8734 33.1856 82.8734 22.3125Z" fill="black"/>
</g>
<path d="M145.405 19.24H155.389V73H145.405V19.24ZM117.603 73H107.619V19.24H117.603V73ZM146.173 49.96H116.758V41.4352H146.173V49.96ZM179.01 41.5888H205.737V49.8064H179.01V41.5888ZM179.778 64.6288H210.114V73H169.794V19.24H209.039V27.6112H179.778V64.6288ZM229.615 73.768C226.185 73.768 223.011 73.1024 220.092 71.7712C217.225 70.44 214.87 68.52 213.027 66.0112L218.71 59.176C220.195 61.224 221.807 62.76 223.548 63.784C225.34 64.808 227.286 65.32 229.385 65.32C234.966 65.32 237.756 62.0176 237.756 55.4128V27.6112H218.633V19.24H247.74V54.8752C247.74 61.224 246.179 65.96 243.055 69.0832C239.983 72.2064 235.503 73.768 229.615 73.768ZM286.935 73.768C282.736 73.768 278.871 73.0768 275.338 71.6944C271.805 70.312 268.733 68.392 266.122 65.9344C263.511 63.4256 261.488 60.5072 260.055 57.1792C258.621 53.8 257.904 50.1136 257.904 46.12C257.904 42.1264 258.621 38.4656 260.055 35.1376C261.488 31.7584 263.511 28.84 266.122 26.3824C268.733 23.8736 271.805 21.928 275.338 20.5456C278.871 19.1632 282.711 18.472 286.858 18.472C291.056 18.472 294.896 19.1632 298.378 20.5456C301.911 21.928 304.983 23.8736 307.594 26.3824C310.205 28.84 312.227 31.7584 313.661 35.1376C315.095 38.4656 315.811 42.1264 315.811 46.12C315.811 50.1136 315.095 53.8 313.661 57.1792C312.227 60.5584 310.205 63.4768 307.594 65.9344C304.983 68.392 301.911 70.312 298.378 71.6944C294.896 73.0768 291.082 73.768 286.935 73.768ZM286.858 65.0128C289.571 65.0128 292.08 64.552 294.384 63.6304C296.688 62.7088 298.685 61.4032 300.375 59.7136C302.064 57.9728 303.37 55.976 304.291 53.7232C305.264 51.4192 305.751 48.8848 305.751 46.12C305.751 43.3552 305.264 40.8464 304.291 38.5936C303.37 36.2896 302.064 34.2928 300.375 32.6032C298.685 30.8624 296.688 29.5312 294.384 28.6096C292.08 27.688 289.571 27.2272 286.858 27.2272C284.144 27.2272 281.635 27.688 279.331 28.6096C277.079 29.5312 275.082 30.8624 273.341 32.6032C271.651 34.2928 270.32 36.2896 269.347 38.5936C268.426 40.8464 267.965 43.3552 267.965 46.12C267.965 48.8336 268.426 51.3424 269.347 53.6464C270.32 55.9504 271.651 57.9728 273.341 59.7136C275.031 61.4032 277.027 62.7088 279.331 63.6304C281.635 64.552 284.144 65.0128 286.858 65.0128ZM326.394 73V19.24H348.513C353.274 19.24 357.345 20.008 360.724 21.544C364.154 23.08 366.791 25.2816 368.634 28.1488C370.477 31.016 371.399 34.4208 371.399 38.3632C371.399 42.3056 370.477 45.7104 368.634 48.5776C366.791 51.4448 364.154 53.6464 360.724 55.1824C357.345 56.7184 353.274 57.4864 348.513 57.4864H331.924L336.378 52.8016V73H326.394ZM336.378 53.8768L331.924 49.0384H348.052C352.455 49.0384 355.757 48.1168 357.959 46.2736C360.212 44.3792 361.338 41.7424 361.338 38.3632C361.338 34.9328 360.212 32.296 357.959 30.4528C355.757 28.6096 352.455 27.688 348.052 27.688H331.924L336.378 22.7728V53.8768ZM381.369 73V19.24H403.488C408.249 19.24 412.32 20.008 415.699 21.544C419.129 23.08 421.766 25.2816 423.609 28.1488C425.452 31.016 426.374 34.4208 426.374 38.3632C426.374 42.3056 425.452 45.7104 423.609 48.5776C421.766 51.3936 419.129 53.5696 415.699 55.1056C412.32 56.5904 408.249 57.3328 403.488 57.3328H386.899L391.353 52.8016V73H381.369ZM416.544 73L402.95 53.4928H413.625L427.296 73H416.544ZM391.353 53.8768L386.899 49.1152H403.027C407.43 49.1152 410.732 48.168 412.934 46.2736C415.187 44.3792 416.313 41.7424 416.313 38.3632C416.313 34.9328 415.187 32.296 412.934 30.4528C410.732 28.6096 407.43 27.688 403.027 27.688H386.899L391.353 22.7728V53.8768ZM462.735 73.768C458.536 73.768 454.671 73.0768 451.138 71.6944C447.605 70.312 444.533 68.392 441.922 65.9344C439.311 63.4256 437.288 60.5072 435.855 57.1792C434.421 53.8 433.704 50.1136 433.704 46.12C433.704 42.1264 434.421 38.4656 435.855 35.1376C437.288 31.7584 439.311 28.84 441.922 26.3824C444.533 23.8736 447.605 21.928 451.138 20.5456C454.671 19.1632 458.511 18.472 462.658 18.472C466.856 18.472 470.696 19.1632 474.178 20.5456C477.711 21.928 480.783 23.8736 483.394 26.3824C486.005 28.84 488.027 31.7584 489.461 35.1376C490.895 38.4656 491.611 42.1264 491.611 46.12C491.611 50.1136 490.895 53.8 489.461 57.1792C488.027 60.5584 486.005 63.4768 483.394 65.9344C480.783 68.392 477.711 70.312 474.178 71.6944C470.696 73.0768 466.882 73.768 462.735 73.768ZM462.658 65.0128C465.371 65.0128 467.88 64.552 470.184 63.6304C472.488 62.7088 474.485 61.4032 476.175 59.7136C477.864 57.9728 479.17 55.976 480.091 53.7232C481.064 51.4192 481.551 48.8848 481.551 46.12C481.551 43.3552 481.064 40.8464 480.091 38.5936C479.17 36.2896 477.864 34.2928 476.175 32.6032C474.485 30.8624 472.488 29.5312 470.184 28.6096C467.88 27.688 465.371 27.2272 462.658 27.2272C459.944 27.2272 457.435 27.688 455.131 28.6096C452.879 29.5312 450.882 30.8624 449.141 32.6032C447.451 34.2928 446.12 36.2896 445.147 38.5936C444.226 40.8464 443.765 43.3552 443.765 46.12C443.765 48.8336 444.226 51.3424 445.147 53.6464C446.12 55.9504 447.451 57.9728 449.141 59.7136C450.831 61.4032 452.827 62.7088 455.131 63.6304C457.435 64.552 459.944 65.0128 462.658 65.0128ZM502.194 73V19.24H524.313C529.074 19.24 533.145 20.008 536.524 21.544C539.954 23.08 542.591 25.2816 544.434 28.1488C546.277 31.016 547.199 34.4208 547.199 38.3632C547.199 42.3056 546.277 45.7104 544.434 48.5776C542.591 51.4448 539.954 53.6464 536.524 55.1824C533.145 56.7184 529.074 57.4864 524.313 57.4864H507.724L512.178 52.8016V73H502.194ZM512.178 53.8768L507.724 49.0384H523.852C528.255 49.0384 531.557 48.1168 533.759 46.2736C536.012 44.3792 537.138 41.7424 537.138 38.3632C537.138 34.9328 536.012 32.296 533.759 30.4528C531.557 28.6096 528.255 27.688 523.852 27.688H507.724L512.178 22.7728V53.8768ZM574.585 73.768C570.386 73.768 566.367 73.1792 562.527 72.0016C558.687 70.7728 555.641 69.2112 553.388 67.3168L556.844 59.56C558.994 61.2496 561.657 62.6576 564.831 63.784C568.006 64.9104 571.257 65.4736 574.585 65.4736C577.401 65.4736 579.679 65.1664 581.42 64.552C583.161 63.9376 584.441 63.1184 585.26 62.0944C586.079 61.0192 586.489 59.816 586.489 58.4848C586.489 56.8464 585.9 55.5408 584.722 54.568C583.545 53.544 582.009 52.7504 580.114 52.1872C578.271 51.5728 576.198 51.0096 573.894 50.4976C571.641 49.9856 569.362 49.3968 567.058 48.7312C564.806 48.0144 562.732 47.1184 560.838 46.0432C558.994 44.9168 557.484 43.432 556.306 41.5888C555.129 39.7456 554.54 37.3904 554.54 34.5232C554.54 31.6048 555.308 28.9424 556.844 26.536C558.431 24.0784 560.812 22.1328 563.986 20.6992C567.212 19.2144 571.282 18.472 576.198 18.472C579.423 18.472 582.623 18.8816 585.798 19.7008C588.972 20.52 591.737 21.6976 594.092 23.2336L590.943 30.9904C588.537 29.5568 586.054 28.5072 583.494 27.8416C580.934 27.1248 578.476 26.7664 576.121 26.7664C573.356 26.7664 571.103 27.0992 569.362 27.7648C567.673 28.4304 566.418 29.3008 565.599 30.376C564.831 31.4512 564.447 32.68 564.447 34.0624C564.447 35.7008 565.01 37.032 566.137 38.056C567.314 39.0288 568.825 39.7968 570.668 40.36C572.562 40.9232 574.662 41.4864 576.966 42.0496C579.27 42.5616 581.548 43.1504 583.801 43.816C586.105 44.4816 588.178 45.352 590.022 46.4272C591.916 47.5024 593.426 48.9616 594.553 50.8048C595.73 52.648 596.319 54.9776 596.319 57.7936C596.319 60.6608 595.526 63.3232 593.938 65.7808C592.402 68.1872 590.022 70.1328 586.796 71.6176C583.57 73.0512 579.5 73.768 574.585 73.768Z" fill="black"/>
</svg>
