<svg width="300" height="456" viewBox="0 0 300 456" fill="none" xmlns="http://www.w3.org/2000/svg">
<path d="M76.2 138.75C77.9758 126.771 82.7198 115.427 90 105.75L36.45 52.35C15.2684 76.4455 2.4779 106.764 0 138.75H76.2ZM105.75 90C115.442 82.7733 126.785 78.0814 138.75 76.35V0C106.764 2.4779 76.4455 15.2684 52.35 36.45L105.75 90ZM161.25 0V75C173.605 77.007 185.231 82.1742 195 90L248.4 36.6C224.124 15.2145 193.516 2.36043 161.25 0ZM90 195C82.7733 185.308 78.0814 173.965 76.35 162H0C2.30915 193.915 14.8859 224.225 35.85 248.4L90 195ZM138.75 223.8C126.771 222.024 115.427 217.28 105.75 210L52.35 263.55C76.4455 284.732 106.764 297.522 138.75 300V223.8ZM210 105.75C217.227 115.442 221.919 126.785 223.65 138.75H298.65C296.341 106.835 283.764 76.5245 262.8 52.35L210 105.75ZM195 210C185.308 217.227 173.965 221.919 162 223.65V298.65C193.915 296.341 224.225 283.764 248.4 262.8L195 210ZM223.8 161.25C222.146 173.491 217.396 185.107 210 195L263.4 248.4C284.785 224.124 297.64 193.516 300 161.25H223.8Z" fill="white"/>
<path d="M28.7022 380.036C28.3902 380.036 28.1742 379.796 28.0542 379.316C28.0302 379.244 28.0182 379.124 28.0182 378.956C28.0182 378.716 28.0662 378.356 28.1622 377.876C28.2102 377.564 28.2462 377.324 28.2702 377.156C28.3182 376.964 28.3542 376.82 28.3782 376.724C29.0982 373.34 29.8062 370.364 30.5022 367.796L33.0222 356.42C33.0222 356.372 33.0582 356.3 33.1302 356.204C33.2022 356.108 33.2862 356.048 33.3822 356.024H33.5622C33.5622 356.048 33.5982 356.06 33.6702 356.06C33.9582 356.06 34.2822 356.024 34.6422 355.952C35.0022 355.88 35.3262 355.844 35.6142 355.844C36.1422 355.844 36.6342 355.88 37.0902 355.952C37.3062 355.952 37.5462 355.964 37.8102 355.988C38.0742 356.012 38.3502 356.024 38.6382 356.024C38.7342 356.024 38.8422 356 38.9622 355.952H39.6102H40.4382L41.3022 355.916C41.4702 355.892 41.6742 355.88 41.9142 355.88C42.1062 355.88 42.2022 355.868 42.2022 355.844H42.7782H44.0022H45.5142C46.8582 355.844 47.7462 355.868 48.1782 355.916C48.2502 355.916 48.3462 355.928 48.4662 355.952C48.6102 355.952 48.6942 355.976 48.7182 356.024C48.8862 356.024 49.0542 356.012 49.2222 355.988C49.3902 355.964 49.5462 355.952 49.6902 355.952C50.0262 355.88 50.3502 355.844 50.6622 355.844C50.8062 355.844 50.9502 355.88 51.0942 355.952C51.2382 356.024 51.3942 356.06 51.5622 356.06L51.7422 356.024H51.8502C51.9222 356.072 51.9942 356.144 52.0662 356.24C52.1622 356.312 52.2102 356.372 52.2102 356.42L54.7302 367.796C55.4982 370.604 56.1942 373.58 56.8182 376.724C56.8182 376.868 56.8662 377.024 56.9622 377.192C56.9862 377.36 57.0222 377.588 57.0702 377.876C57.1182 378.164 57.1422 378.404 57.1422 378.596C57.1662 378.692 57.1782 378.824 57.1782 378.992C57.1782 379.328 57.1062 379.604 56.9622 379.82C56.8662 379.964 56.7222 380.036 56.5302 380.036H56.0622C55.7022 380.036 55.4262 380.024 55.2342 380H54.2982H53.3982H52.6782C52.4862 380 52.3902 379.988 52.3902 379.964H50.1222V379.892C50.0262 379.844 49.9062 379.82 49.7622 379.82C49.7622 379.82 49.7502 379.832 49.7262 379.856C49.7262 379.856 49.7142 379.868 49.6902 379.892C49.6902 379.94 49.6662 379.964 49.6182 379.964H49.5102H49.2222C49.1022 379.916 48.8622 379.892 48.5022 379.892C47.7822 379.844 47.2182 379.82 46.8102 379.82C46.6662 379.604 46.5102 379.172 46.3422 378.524C46.1982 377.876 46.0422 377.156 45.8742 376.364C45.8262 375.98 45.7782 375.716 45.7302 375.572C45.2262 375.668 44.5662 375.716 43.7502 375.716H42.6342H41.5902L41.3382 376.868C41.0262 378.452 40.7742 379.436 40.5822 379.82C40.4862 379.82 40.3662 379.844 40.2222 379.892C40.1742 379.916 40.1262 379.94 40.0782 379.964C40.0542 379.964 40.0422 379.964 40.0422 379.964H39.8982C39.7542 379.964 39.6462 379.94 39.5742 379.892C39.5262 379.844 39.4662 379.82 39.3942 379.82L37.7742 379.892H37.1982H36.6582C36.5622 379.94 36.4422 379.964 36.2982 379.964H36.1542H32.8422H32.5182C32.2542 379.988 31.7142 380 30.8982 380H29.9622C29.7702 380.024 29.4942 380.036 29.1342 380.036H28.7022ZM45.3342 371.216C45.1662 370.04 45.0822 369.452 45.0822 369.452C45.0102 369.116 44.8902 368.48 44.7222 367.544C44.6742 367.304 44.5542 366.656 44.3622 365.6C44.1702 364.448 44.0742 363.872 44.0742 363.872C44.0022 363.392 43.9302 362.972 43.8582 362.612L43.8222 362.144C43.7502 362.024 43.7142 361.916 43.7142 361.82L43.6782 361.604C43.6542 361.652 43.6422 361.724 43.6422 361.82C43.6422 361.916 43.6182 361.976 43.5702 362V362.144L43.4982 362.612C43.4742 362.78 43.4382 362.972 43.3902 363.188C43.3662 363.38 43.3302 363.596 43.2822 363.836L43.1022 364.844C42.8382 366.356 42.6822 367.232 42.6342 367.472C42.6102 367.736 42.5502 368.132 42.4542 368.66C42.4062 368.828 42.3582 369.08 42.3102 369.416L42.0222 371.072H43.8582L44.1102 371H44.1822C44.4702 371 44.6862 371.024 44.8302 371.072C44.9262 371.072 45.0102 371.096 45.0822 371.144C45.1782 371.168 45.2622 371.192 45.3342 371.216ZM68.4451 380.54C67.4851 380.588 66.6691 380.564 65.9971 380.468C65.4451 380.348 64.9411 380.18 64.4851 379.964C64.0291 379.748 63.6091 379.412 63.2251 378.956C62.4571 377.996 61.9411 376.736 61.6771 375.176C61.4851 373.904 61.4131 372.512 61.4611 371V369.416C61.4611 369.2 61.4731 369.032 61.4971 368.912V368.192V367.544V367.184L61.6051 366.932C61.6051 366.908 61.6051 366.872 61.6051 366.824C61.6291 366.776 61.6411 366.692 61.6411 366.572C61.7131 365.708 61.7491 365.012 61.7491 364.484L61.8211 363.152C61.8451 362.552 61.8571 361.856 61.8571 361.064C61.8571 360.752 61.8451 360.536 61.8211 360.416C61.7731 360.128 61.7491 359.9 61.7491 359.732C61.7491 359.372 62.1211 359.192 62.8651 359.192H63.3691C63.6571 359.192 63.8491 359.168 63.9451 359.12L68.3371 359.192C68.3371 359.192 68.3491 359.216 68.3731 359.264C68.4211 359.288 68.4571 359.3 68.4811 359.3L68.7691 359.192C70.0171 359.192 70.8211 359.312 71.1811 359.552C71.4211 359.72 71.5891 359.972 71.6851 360.308C71.8051 360.644 71.8651 361.1 71.8651 361.676C71.8651 362.06 71.8891 362.588 71.9371 363.26C71.9851 363.596 72.0091 364.124 72.0091 364.844V365.204C71.9611 365.9 71.9131 367.04 71.8651 368.624L71.8291 370.352V371.9C71.7811 372.188 71.7571 372.572 71.7571 373.052V373.592V374.132C71.7331 374.468 71.7811 374.936 71.9011 375.536C72.0211 375.728 72.1291 375.824 72.2251 375.824C72.3691 375.824 72.9091 375.644 73.8451 375.284L74.7091 374.852C74.9491 374.756 75.0691 374.66 75.0691 374.564V362.72C74.9971 362.216 74.9611 361.82 74.9611 361.532C74.9371 361.412 74.9251 361.232 74.9251 360.992V360.452V360.092C74.9251 359.804 74.9851 359.6 75.1051 359.48C75.1531 359.408 75.2731 359.372 75.4651 359.372C75.5131 359.372 75.5611 359.396 75.6091 359.444C75.6571 359.468 75.6811 359.504 75.6811 359.552V359.624C75.9211 359.528 76.4371 359.444 77.2291 359.372C77.8771 359.3 78.5971 359.264 79.3891 359.264H80.2891H80.8651H81.5491L85.3291 359.372C85.3771 359.372 85.4131 359.384 85.4371 359.408C85.4851 359.432 85.5091 359.456 85.5091 359.48C85.5331 359.48 85.5451 359.492 85.5451 359.516C85.5451 359.54 85.5451 359.552 85.5451 359.552V359.732C85.5211 359.732 85.5091 359.768 85.5091 359.84L85.6891 359.804C85.7131 359.756 85.7491 359.732 85.7971 359.732C85.8691 359.732 85.9051 359.792 85.9051 359.912C85.9051 364.112 85.8811 367.604 85.8331 370.388C85.8091 373.148 85.7131 375.944 85.5451 378.776C85.5451 378.896 85.4491 379.076 85.2571 379.316C85.1611 379.436 85.0771 379.532 85.0051 379.604C84.9811 379.652 84.9451 379.688 84.8971 379.712C84.8491 379.736 84.8131 379.76 84.7891 379.784C84.7651 379.76 84.6811 379.736 84.5371 379.712C84.3931 379.664 84.2731 379.64 84.1771 379.64L84.0691 379.712C84.0211 379.76 83.9731 379.784 83.9251 379.784C82.9651 379.952 81.4531 380.036 79.3891 380.036H77.8051C77.2051 380.036 76.6771 379.988 76.2211 379.892C76.0531 379.772 75.8731 379.472 75.6811 378.992C75.6571 378.824 75.6091 378.68 75.5371 378.56C75.4891 378.44 75.4291 378.38 75.3571 378.38C75.1651 378.38 74.8651 378.512 74.4571 378.776C74.4091 378.824 74.3371 378.884 74.2411 378.956C74.1691 379.004 74.0971 379.064 74.0251 379.136C73.8331 379.28 73.7011 379.4 73.6291 379.496C72.9811 379.856 72.2131 380.12 71.3251 380.288C70.7251 380.432 70.1731 380.504 69.6691 380.504C69.1171 380.504 68.7091 380.516 68.4451 380.54ZM100.478 380.108H98.8221H96.9501H94.5741C94.3581 379.772 94.2141 379.16 94.1421 378.272C94.0461 377.48 93.9981 376.328 93.9981 374.816L94.0341 370.856C94.0581 369.896 94.0701 368.372 94.0701 366.284L93.9621 366.176H90.3981C89.8701 366.176 89.5221 365.576 89.3541 364.376C89.2581 363.728 89.2101 362.78 89.2101 361.532V361.064C89.2581 360.896 89.2821 360.632 89.2821 360.272V359.552L89.3181 359.264L89.4621 359.12L90.1101 359.156H90.8301C91.8861 359.156 92.6901 359.144 93.2421 359.12H95.5821H96.2301H97.4541H99.0021H100.55C100.862 359.144 101.306 359.156 101.882 359.156H102.782C102.878 359.108 103.034 359.084 103.25 359.084C103.418 359.036 103.574 359.012 103.718 359.012C104.174 359.012 104.522 359.036 104.762 359.084C105.242 359.132 105.602 359.156 105.842 359.156L106.778 359.12H108.182C108.902 359.12 109.394 359.132 109.658 359.156L110.162 359.192C110.186 359.216 110.222 359.252 110.27 359.3C110.318 359.324 110.342 359.348 110.342 359.372V365.492C110.342 365.636 110.258 365.792 110.09 365.96C109.946 366.128 109.802 366.236 109.658 366.284C108.866 366.116 107.834 366.032 106.562 366.032H105.194C104.834 366.032 104.594 366.488 104.474 367.4C104.426 367.664 104.402 368.048 104.402 368.552V369.632C104.402 370.112 104.414 370.472 104.438 370.712V371.72C104.438 372.704 104.39 373.616 104.294 374.456C104.246 375.08 104.222 375.536 104.222 375.824C104.174 376.112 104.15 376.508 104.15 377.012C104.15 377.732 104.126 378.332 104.078 378.812C104.054 379.556 103.778 379.952 103.25 380C102.674 380.072 102.338 380.108 102.242 380.108H100.478ZM124.142 380.9C123.95 380.9 123.686 380.876 123.35 380.828C123.182 380.78 122.918 380.756 122.558 380.756C121.646 380.756 120.518 380.552 119.174 380.144H118.922C118.754 380.144 118.574 380.096 118.382 380C118.334 379.952 118.274 379.916 118.202 379.892C118.13 379.844 118.046 379.784 117.95 379.712L117.194 379.28C116.474 378.872 115.838 378.308 115.286 377.588C114.734 376.844 114.29 376.028 113.954 375.14C113.306 373.508 112.982 371.84 112.982 370.136C112.982 368.24 113.366 366.416 114.134 364.664C114.95 362.816 116.042 361.352 117.41 360.272C118.922 359.072 120.602 358.472 122.45 358.472C123.026 358.472 123.47 358.496 123.782 358.544C123.782 358.496 123.818 358.472 123.89 358.472H123.998C125.678 358.472 127.178 358.532 128.498 358.652C129.626 358.82 130.67 359.168 131.63 359.696C133.55 360.968 134.93 362.36 135.77 363.872C136.658 365.552 137.102 367.532 137.102 369.812C137.102 372.092 136.562 374.228 135.482 376.22L135.122 376.796C135.026 376.94 134.966 377.012 134.942 377.012L134.834 377.192L134.582 377.336C133.55 378.872 131.99 379.916 129.902 380.468C128.51 380.756 126.59 380.9 124.142 380.9ZM124.754 378.2C124.97 378.2 125.138 378.068 125.258 377.804C125.546 377.372 125.786 376.532 125.978 375.284C126.002 375.068 126.062 374.588 126.158 373.844C126.254 373.1 126.314 372.404 126.338 371.756C126.434 370.124 126.482 369.116 126.482 368.732V367.904V367.616C126.482 366.752 126.446 366.008 126.374 365.384C126.302 364.4 126.158 363.62 125.942 363.044C125.726 362.756 125.558 362.612 125.438 362.612C125.198 362.612 124.97 362.792 124.754 363.152C124.538 363.512 124.37 364.172 124.25 365.132L123.494 370.892V371.612V372.08C123.566 373.088 123.602 373.748 123.602 374.06L123.674 374.924L123.782 376.076C123.782 376.268 123.806 376.436 123.854 376.58L124.25 377.912C124.274 378.008 124.334 378.08 124.43 378.128C124.55 378.176 124.658 378.2 124.754 378.2ZM162.399 380.864C160.815 380.864 159.495 380.792 158.439 380.648C157.071 380.456 155.835 380.108 154.731 379.604C154.587 379.532 154.371 379.424 154.083 379.28C153.819 379.112 153.591 378.956 153.399 378.812C152.607 378.14 151.959 377.384 151.455 376.544C151.047 376.112 150.675 375.512 150.339 374.744C149.691 373.064 149.367 371.06 149.367 368.732C149.367 365.996 149.931 363.596 151.059 361.532C152.043 359.564 153.351 358.028 154.983 356.924C156.639 355.796 158.511 355.16 160.599 355.016L161.031 354.98H161.499C163.371 354.98 165.387 355.364 167.547 356.132C167.739 356.228 168.159 356.42 168.807 356.708C169.455 356.996 170.055 357.32 170.607 357.68L169.959 362.36L167.835 361.82C167.067 361.628 166.347 361.532 165.675 361.532C164.331 361.532 163.323 362.036 162.651 363.044C161.931 364.1 161.571 365.816 161.571 368.192C161.571 368.96 161.607 369.5 161.679 369.812C161.775 371.324 162.111 372.44 162.687 373.16C163.239 373.784 163.899 374.096 164.667 374.096C165.387 374.096 166.191 373.868 167.079 373.412C167.847 373.052 168.687 372.56 169.599 371.936L169.959 377.84C169.023 378.704 167.823 379.436 166.359 380.036C164.967 380.588 163.647 380.864 162.399 380.864ZM184.927 380.9C184.735 380.9 184.471 380.876 184.135 380.828C183.967 380.78 183.703 380.756 183.343 380.756C182.431 380.756 181.303 380.552 179.959 380.144H179.707C179.539 380.144 179.359 380.096 179.167 380C179.119 379.952 179.059 379.916 178.987 379.892C178.915 379.844 178.831 379.784 178.735 379.712L177.979 379.28C177.259 378.872 176.623 378.308 176.071 377.588C175.519 376.844 175.075 376.028 174.739 375.14C174.091 373.508 173.767 371.84 173.767 370.136C173.767 368.24 174.151 366.416 174.919 364.664C175.735 362.816 176.827 361.352 178.195 360.272C179.707 359.072 181.387 358.472 183.235 358.472C183.811 358.472 184.255 358.496 184.567 358.544C184.567 358.496 184.603 358.472 184.675 358.472H184.783C186.463 358.472 187.963 358.532 189.283 358.652C190.411 358.82 191.455 359.168 192.415 359.696C194.335 360.968 195.715 362.36 196.555 363.872C197.443 365.552 197.887 367.532 197.887 369.812C197.887 372.092 197.347 374.228 196.267 376.22L195.907 376.796C195.811 376.94 195.751 377.012 195.727 377.012L195.619 377.192L195.367 377.336C194.335 378.872 192.775 379.916 190.687 380.468C189.295 380.756 187.375 380.9 184.927 380.9ZM185.539 378.2C185.755 378.2 185.923 378.068 186.043 377.804C186.331 377.372 186.571 376.532 186.763 375.284C186.787 375.068 186.847 374.588 186.943 373.844C187.039 373.1 187.099 372.404 187.123 371.756C187.219 370.124 187.267 369.116 187.267 368.732V367.904V367.616C187.267 366.752 187.231 366.008 187.159 365.384C187.087 364.4 186.943 363.62 186.727 363.044C186.511 362.756 186.343 362.612 186.223 362.612C185.983 362.612 185.755 362.792 185.539 363.152C185.323 363.512 185.155 364.172 185.035 365.132L184.279 370.892V371.612V372.08C184.351 373.088 184.387 373.748 184.387 374.06L184.459 374.924L184.567 376.076C184.567 376.268 184.591 376.436 184.639 376.58L185.035 377.912C185.059 378.008 185.119 378.08 185.215 378.128C185.335 378.176 185.443 378.2 185.539 378.2ZM211.419 380.18L210.951 380.108H210.375C210.015 380.06 209.391 380.012 208.503 379.964C208.311 379.964 208.131 379.952 207.963 379.928C207.795 379.904 207.639 379.892 207.495 379.892H206.703L206.343 379.856C205.575 379.856 205.011 379.868 204.651 379.892C204.291 379.94 203.727 379.964 202.959 379.964H202.239L201.591 380L201.483 379.856V379.46V378.56V377.624V377.012V374.564C201.483 373.988 201.459 373.568 201.411 373.304V372.44L201.555 370.892C201.627 369.932 201.663 368.552 201.663 366.752C201.711 363.848 201.891 361.748 202.203 360.452C202.371 359.756 202.647 359.312 203.031 359.12L207.243 359.156C207.603 359.18 208.119 359.192 208.791 359.192H210.519C210.639 359.216 210.855 359.24 211.167 359.264C211.503 359.288 211.755 359.348 211.923 359.444C212.067 359.564 212.163 359.732 212.211 359.948C212.283 360.14 212.319 360.428 212.319 360.812L212.283 361.1V361.532C212.211 361.7 212.175 361.868 212.175 362.036C212.127 362.228 212.115 362.42 212.139 362.612V363.152C212.163 363.272 212.175 363.44 212.175 363.656L212.211 363.944V364.772L212.247 365.924C212.271 366.164 212.283 366.5 212.283 366.932C212.331 367.268 212.391 367.496 212.463 367.616C212.463 367.784 212.451 367.964 212.427 368.156C212.403 368.348 212.391 368.54 212.391 368.732C212.367 369.02 212.355 369.452 212.355 370.028C212.355 370.58 212.367 370.988 212.391 371.252C212.391 371.636 212.451 372.032 212.571 372.44C212.811 372.536 213.087 372.584 213.399 372.584C214.191 372.584 215.007 372.572 215.847 372.548C216.711 372.524 217.479 372.452 218.151 372.332C218.295 372.356 218.427 372.452 218.547 372.62C218.691 372.788 218.763 372.932 218.763 373.052L218.511 379.244C218.463 379.388 218.367 379.484 218.223 379.532C217.815 379.724 217.251 379.844 216.531 379.892C215.571 380.036 214.935 380.108 214.623 380.108H214.011C213.531 380.108 213.171 380.12 212.931 380.144C212.451 380.192 212.115 380.216 211.923 380.216L211.419 380.18ZM232.458 380.9C232.266 380.9 232.002 380.876 231.666 380.828C231.498 380.78 231.234 380.756 230.874 380.756C229.962 380.756 228.834 380.552 227.49 380.144H227.238C227.07 380.144 226.89 380.096 226.698 380C226.65 379.952 226.59 379.916 226.518 379.892C226.446 379.844 226.362 379.784 226.266 379.712L225.51 379.28C224.79 378.872 224.154 378.308 223.602 377.588C223.05 376.844 222.606 376.028 222.27 375.14C221.622 373.508 221.298 371.84 221.298 370.136C221.298 368.24 221.682 366.416 222.45 364.664C223.266 362.816 224.358 361.352 225.726 360.272C227.238 359.072 228.918 358.472 230.766 358.472C231.342 358.472 231.786 358.496 232.098 358.544C232.098 358.496 232.134 358.472 232.206 358.472H232.314C233.994 358.472 235.494 358.532 236.814 358.652C237.942 358.82 238.986 359.168 239.946 359.696C241.866 360.968 243.246 362.36 244.086 363.872C244.974 365.552 245.418 367.532 245.418 369.812C245.418 372.092 244.878 374.228 243.798 376.22L243.438 376.796C243.342 376.94 243.282 377.012 243.258 377.012L243.15 377.192L242.898 377.336C241.866 378.872 240.306 379.916 238.218 380.468C236.826 380.756 234.906 380.9 232.458 380.9ZM233.07 378.2C233.286 378.2 233.454 378.068 233.574 377.804C233.862 377.372 234.102 376.532 234.294 375.284C234.318 375.068 234.378 374.588 234.474 373.844C234.57 373.1 234.63 372.404 234.654 371.756C234.75 370.124 234.798 369.116 234.798 368.732V367.904V367.616C234.798 366.752 234.762 366.008 234.69 365.384C234.618 364.4 234.474 363.62 234.258 363.044C234.042 362.756 233.874 362.612 233.754 362.612C233.514 362.612 233.286 362.792 233.07 363.152C232.854 363.512 232.686 364.172 232.566 365.132L231.81 370.892V371.612V372.08C231.882 373.088 231.918 373.748 231.918 374.06L231.99 374.924L232.098 376.076C232.098 376.268 232.122 376.436 232.17 376.58L232.566 377.912C232.59 378.008 232.65 378.08 232.746 378.128C232.866 378.176 232.974 378.2 233.07 378.2ZM265.646 380.396C264.59 379.364 263.69 378.32 262.946 377.264C262.418 376.568 261.602 375.332 260.498 373.556L259.886 372.584C259.862 372.56 259.838 372.548 259.814 372.548C259.814 372.524 259.814 372.512 259.814 372.512H259.634L259.49 372.584C259.466 372.896 259.454 373.736 259.454 375.104C259.454 375.992 259.406 377.036 259.31 378.236L259.274 379.316C259.178 379.58 259.118 379.712 259.094 379.712H258.842H258.734C256.094 379.904 254.174 380 252.974 380H252.434H251.75C251.486 380 251.294 379.988 251.174 379.964H250.922L249.806 379.604L249.734 379.352C249.686 379.352 249.65 379.304 249.626 379.208C249.626 379.112 249.626 379.04 249.626 378.992C249.554 377.984 249.494 377.252 249.446 376.796C249.35 375.5 249.29 374.552 249.266 373.952C249.218 373.376 249.194 373.004 249.194 372.836L249.014 370.856L248.978 369.776C248.954 369.56 248.942 369.26 248.942 368.876V368.552C248.99 368.432 249.014 368.24 249.014 367.976V367.364C249.038 367.268 249.05 367.16 249.05 367.04L249.014 366.752V366.392C249.014 366.224 248.99 366.092 248.942 365.996V365.78L248.978 364.88C249.002 364.712 249.014 364.46 249.014 364.124C249.062 363.404 249.086 362.72 249.086 362.072V361.712C249.062 361.64 249.05 361.484 249.05 361.244V360.74V360.38C248.978 360.308 248.942 360.236 248.942 360.164C248.942 359.828 249.242 359.588 249.842 359.444C250.154 359.348 250.598 359.3 251.174 359.3C256.79 359.3 260.99 359.492 263.774 359.876C266.51 360.26 268.43 360.92 269.534 361.856C270.014 362.312 270.35 362.852 270.542 363.476C270.758 364.076 270.866 364.796 270.866 365.636C270.866 366.98 270.482 368.108 269.714 369.02C269.21 369.524 268.622 369.944 267.95 370.28C268.094 370.64 268.514 371.36 269.21 372.44C269.354 372.608 269.486 372.788 269.606 372.98C269.75 373.172 269.918 373.376 270.11 373.592C270.566 374.216 271.094 374.9 271.694 375.644C271.718 375.74 271.814 375.944 271.982 376.256C272.102 376.304 272.162 376.364 272.162 376.436C272.186 376.484 272.174 376.556 272.126 376.652C271.934 376.94 271.37 377.36 270.434 377.912C270.314 378.032 270.17 378.152 270.002 378.272C269.522 378.656 268.862 379.052 268.022 379.46C267.254 379.868 266.594 380.156 266.042 380.324C265.826 380.444 265.694 380.468 265.646 380.396ZM259.094 367.724C259.406 367.724 259.826 367.664 260.354 367.544C260.858 367.4 261.218 367.256 261.434 367.112C261.794 366.896 262.106 366.656 262.37 366.392C262.634 366.08 262.766 365.72 262.766 365.312C262.766 364.64 262.562 364.1 262.154 363.692C261.794 363.404 261.35 363.26 260.822 363.26H259.274C259.274 363.572 259.25 364.064 259.202 364.736L259.166 365.492C259.118 365.972 259.094 366.716 259.094 367.724ZM71.8776 439.828C70.0056 439.828 68.3256 439.396 66.8376 438.532C65.1576 437.716 63.7776 436.372 62.6976 434.5C61.4976 432.388 60.8976 429.892 60.8976 427.012C60.8976 424.972 61.2576 423.136 61.9776 421.504C62.6976 419.872 63.7296 418.492 65.0736 417.364C66.3936 416.26 67.9416 415.42 69.7176 414.844C71.4936 414.268 73.4256 413.98 75.5136 413.98C78.5856 413.98 81.7536 414.76 85.0176 416.32L83.6136 422.44C83.4456 422.392 83.2416 422.332 83.0016 422.26C82.7856 422.188 82.5336 422.116 82.2456 422.044C80.9256 421.708 79.9536 421.492 79.3296 421.396C78.7536 421.3 78.2856 421.252 77.9256 421.252C76.4136 421.252 75.2616 421.66 74.4696 422.476C73.5336 423.412 73.0656 424.984 73.0656 427.192C73.0656 429.208 73.3656 430.648 73.9656 431.512C74.4696 432.328 75.2136 432.736 76.1976 432.736C76.8216 432.736 77.5416 432.568 78.3576 432.232C78.3576 431.848 78.3336 431.272 78.2856 430.504L78.2496 429.712C78.2256 429.16 78.2136 428.344 78.2136 427.264V426.292C78.2136 426.076 78.2496 425.932 78.3216 425.86C78.3936 425.764 78.5256 425.716 78.7176 425.716C78.7896 425.74 78.9936 425.752 79.3296 425.752H83.1456C84.2736 425.752 85.0176 425.74 85.3776 425.716C86.0256 425.716 86.4456 425.728 86.6376 425.752C86.9496 425.824 87.1536 425.944 87.2496 426.112C87.3696 426.256 87.4296 426.496 87.4296 426.832C87.4296 426.952 87.4416 427.06 87.4656 427.156V427.48V428.056V429.136V432.772V432.952C87.4416 433.048 87.4176 433.156 87.3936 433.276C87.3696 433.396 87.3576 433.528 87.3576 433.672V433.852C87.3576 435.364 87.3336 436.42 87.2856 437.02C87.2376 438.004 87.1536 438.628 87.0336 438.892C86.4096 438.892 85.9416 438.916 85.6296 438.964L84.8376 439H84.7296C84.5136 439 84.3936 438.988 84.3696 438.964C84.3456 438.94 84.3216 438.928 84.2976 438.928C84.2976 438.904 84.2976 438.892 84.2976 438.892H84.1896C84.1656 438.916 84.1416 438.94 84.1176 438.964C84.1176 438.988 84.1176 439 84.1176 439H80.5176H80.3376H79.9776H79.5456C79.4736 439.024 79.3776 439.036 79.2576 439.036C79.1616 439.036 79.0776 438.964 79.0056 438.82C78.8376 438.388 78.7416 437.872 78.7176 437.272C78.6696 436.984 78.6216 436.564 78.5736 436.012C78.3576 437.236 77.6016 438.184 76.3056 438.856C75.1296 439.504 73.6536 439.828 71.8776 439.828ZM107.882 439.396C106.826 438.364 105.926 437.32 105.182 436.264C104.654 435.568 103.838 434.332 102.734 432.556L102.122 431.584C102.098 431.56 102.074 431.548 102.05 431.548C102.05 431.524 102.05 431.512 102.05 431.512H101.87L101.726 431.584C101.702 431.896 101.69 432.736 101.69 434.104C101.69 434.992 101.642 436.036 101.546 437.236L101.51 438.316C101.414 438.58 101.354 438.712 101.33 438.712H101.078H100.97C98.3301 438.904 96.4101 439 95.2101 439H94.6701H93.9861C93.7221 439 93.5301 438.988 93.4101 438.964H93.1581L92.0421 438.604L91.9701 438.352C91.9221 438.352 91.8861 438.304 91.8621 438.208C91.8621 438.112 91.8621 438.04 91.8621 437.992C91.7901 436.984 91.7301 436.252 91.6821 435.796C91.5861 434.5 91.5261 433.552 91.5021 432.952C91.4541 432.376 91.4301 432.004 91.4301 431.836L91.2501 429.856L91.2141 428.776C91.1901 428.56 91.1781 428.26 91.1781 427.876V427.552C91.2261 427.432 91.2501 427.24 91.2501 426.976V426.364C91.2741 426.268 91.2861 426.16 91.2861 426.04L91.2501 425.752V425.392C91.2501 425.224 91.2261 425.092 91.1781 424.996V424.78L91.2141 423.88C91.2381 423.712 91.2501 423.46 91.2501 423.124C91.2981 422.404 91.3221 421.72 91.3221 421.072V420.712C91.2981 420.64 91.2861 420.484 91.2861 420.244V419.74V419.38C91.2141 419.308 91.1781 419.236 91.1781 419.164C91.1781 418.828 91.4781 418.588 92.0781 418.444C92.3901 418.348 92.8341 418.3 93.4101 418.3C99.0261 418.3 103.226 418.492 106.01 418.876C108.746 419.26 110.666 419.92 111.77 420.856C112.25 421.312 112.586 421.852 112.778 422.476C112.994 423.076 113.102 423.796 113.102 424.636C113.102 425.98 112.718 427.108 111.95 428.02C111.446 428.524 110.858 428.944 110.186 429.28C110.33 429.64 110.75 430.36 111.446 431.44C111.59 431.608 111.722 431.788 111.842 431.98C111.986 432.172 112.154 432.376 112.346 432.592C112.802 433.216 113.33 433.9 113.93 434.644C113.954 434.74 114.05 434.944 114.218 435.256C114.338 435.304 114.398 435.364 114.398 435.436C114.422 435.484 114.41 435.556 114.362 435.652C114.17 435.94 113.606 436.36 112.67 436.912C112.55 437.032 112.406 437.152 112.238 437.272C111.758 437.656 111.098 438.052 110.258 438.46C109.49 438.868 108.83 439.156 108.278 439.324C108.062 439.444 107.93 439.468 107.882 439.396ZM101.33 426.724C101.642 426.724 102.062 426.664 102.59 426.544C103.094 426.4 103.454 426.256 103.67 426.112C104.03 425.896 104.342 425.656 104.606 425.392C104.87 425.08 105.002 424.72 105.002 424.312C105.002 423.64 104.798 423.1 104.39 422.692C104.03 422.404 103.586 422.26 103.058 422.26H101.51C101.51 422.572 101.486 423.064 101.438 423.736L101.402 424.492C101.354 424.972 101.33 425.716 101.33 426.724ZM118.61 439.036C118.154 439.036 117.974 438.628 118.07 437.812C118.07 437.524 118.13 437.2 118.25 436.84C118.25 436.672 118.262 436.54 118.286 436.444C118.31 436.324 118.322 436.228 118.322 436.156C118.874 433.54 119.486 430.96 120.158 428.416L122.606 418.84C122.606 418.792 122.642 418.732 122.714 418.66C122.786 418.588 122.858 418.528 122.93 418.48H123.182C123.47 418.48 123.698 418.444 123.866 418.372C124.01 418.348 124.262 418.336 124.622 418.336C125.198 418.336 125.63 418.348 125.918 418.372C126.35 418.444 126.794 418.48 127.25 418.48L129.122 418.444C129.314 418.396 129.542 418.372 129.806 418.372L131.39 418.3H132.578C133.034 418.3 133.478 418.312 133.91 418.336H134.918C135.158 418.36 135.506 418.372 135.962 418.372H137.33C137.402 418.372 137.474 418.384 137.546 418.408C137.618 418.432 137.678 418.456 137.726 418.48C137.822 418.528 137.942 418.552 138.086 418.552H138.41C138.578 418.672 138.662 418.792 138.662 418.912L141.218 428.416C142.01 431.464 142.634 434.044 143.09 436.156C143.09 436.276 143.126 436.504 143.198 436.84C143.294 437.32 143.342 437.704 143.342 437.992C143.342 438.16 143.318 438.388 143.27 438.676C143.15 438.916 142.982 439.036 142.766 439.036H142.37C142.058 439.036 141.818 439.024 141.65 439H140.858H140.102H139.49C139.322 439 139.226 438.988 139.202 438.964H137.222L137.186 438.892C137.138 438.844 137.066 438.82 136.97 438.82L136.862 438.892C136.862 438.94 136.838 438.964 136.79 438.964H136.682H136.43C136.31 438.916 136.094 438.892 135.782 438.892C135.206 438.844 134.726 438.82 134.342 438.82C134.078 438.268 133.766 437.056 133.406 435.184C132.902 435.256 132.326 435.292 131.678 435.292H130.742H129.842C129.746 435.652 129.686 435.952 129.662 436.192C129.638 436.312 129.542 436.72 129.374 437.416C129.206 438.112 129.05 438.58 128.906 438.82L128.69 438.892C128.618 438.916 128.558 438.94 128.51 438.964C128.462 438.964 128.438 438.964 128.438 438.964H128.366C128.222 438.964 128.126 438.94 128.078 438.892C127.982 438.844 127.922 438.82 127.898 438.82L126.53 438.892H125.522C125.402 438.916 125.306 438.94 125.234 438.964C125.162 438.964 125.114 438.964 125.09 438.964H122.21H121.922C121.706 438.988 121.262 439 120.59 439H119.726C119.582 439.024 119.354 439.036 119.042 439.036H118.61ZM133.082 431.332C132.938 430.516 132.854 430.036 132.83 429.892L132.542 428.164C132.494 427.828 132.446 427.528 132.398 427.264C132.35 426.976 132.314 426.712 132.29 426.472C132.218 426.184 132.158 425.92 132.11 425.68C132.086 425.416 132.05 425.176 132.002 424.96C131.978 424.816 131.954 424.636 131.93 424.42C131.906 424.18 131.87 424.012 131.822 423.916L131.75 423.484C131.75 423.388 131.726 423.304 131.678 423.232L131.642 423.016C131.594 423.16 131.57 423.232 131.57 423.232V423.376V423.484C131.57 423.508 131.558 423.556 131.534 423.628C131.51 423.676 131.486 423.772 131.462 423.916C131.438 424.036 131.414 424.192 131.39 424.384C131.366 424.552 131.33 424.744 131.282 424.96L131.03 426.436L130.742 428.092L130.634 428.884C130.586 429.076 130.538 429.388 130.49 429.82C130.274 430.9 130.178 431.392 130.202 431.296H131.786C131.81 431.272 131.846 431.248 131.894 431.224C131.942 431.176 131.978 431.152 132.002 431.152H132.11C132.23 431.152 132.326 431.164 132.398 431.188C132.494 431.212 132.578 431.236 132.65 431.26C132.794 431.308 132.938 431.332 133.082 431.332ZM153.012 439C152.1 438.976 150.528 438.964 148.296 438.964C147.96 438.964 147.732 438.748 147.612 438.316C147.54 438.076 147.504 437.656 147.504 437.056C147.504 435.976 147.48 435.028 147.432 434.212C147.432 433.468 147.408 432.112 147.36 430.144L147.324 425.824V419.02C147.324 418.852 147.408 418.672 147.576 418.48C147.768 418.288 147.948 418.192 148.116 418.192L150.204 418.228C150.54 418.252 151.032 418.264 151.68 418.264C152.376 418.288 153.24 418.3 154.272 418.3C155.808 418.3 157.008 418.288 157.872 418.264C158.712 418.216 160.116 418.192 162.084 418.192C163.428 418.192 164.664 418.432 165.792 418.912C167.208 419.512 168.336 420.448 169.176 421.72C170.136 423.208 170.616 425.14 170.616 427.516C170.616 429.652 170.376 431.44 169.896 432.88C169.44 434.32 168.696 435.484 167.664 436.372C166.608 437.284 165.216 437.956 163.488 438.388C161.784 438.796 159.648 439 157.08 439H153.012ZM157.332 434.932C157.86 434.932 158.208 434.908 158.376 434.86C158.544 434.812 158.664 434.752 158.736 434.68C159.096 434.32 159.432 433.252 159.744 431.476C160.008 429.82 160.14 428.272 160.14 426.832V426.256C160.14 425.416 160.08 424.612 159.96 423.844C159.864 422.908 159.672 422.14 159.384 421.54C159.216 421.276 159 421.144 158.736 421.144C158.52 421.144 158.256 421.204 157.944 421.324L157.692 421.432C157.692 421.984 157.668 423.22 157.62 425.14L157.584 427.372C157.584 427.852 157.572 428.224 157.548 428.488L157.512 429.604L157.332 434.932ZM175.727 439.468C175.295 439.468 175.019 439.036 174.899 438.172C174.827 437.812 174.791 437.488 174.791 437.2C174.791 436.816 174.779 436.576 174.755 436.48C174.731 435.784 174.671 434.68 174.575 433.168L174.467 431.8C174.323 429.688 174.251 428.128 174.251 427.12V418.372C174.251 418.18 174.467 418.036 174.899 417.94C175.139 417.868 175.475 417.832 175.907 417.832C176.195 417.832 176.507 417.856 176.843 417.904C177.179 417.928 177.431 417.94 177.599 417.94C177.959 417.988 178.523 418.012 179.291 418.012L179.435 417.904H181.019C181.091 417.976 181.175 418.012 181.271 418.012H181.415C181.439 417.988 181.499 417.976 181.595 417.976C181.643 417.952 181.715 417.94 181.811 417.94C181.835 417.916 181.859 417.904 181.883 417.904C181.907 417.904 181.919 417.904 181.919 417.904C181.991 417.904 182.075 417.928 182.171 417.976C182.267 418 182.339 418.012 182.387 418.012H185.051L185.159 424.204C185.159 424.228 185.135 424.312 185.087 424.456C185.063 424.576 185.039 424.744 185.015 424.96C184.943 425.824 184.907 426.508 184.907 427.012V434.032L184.799 435.4C184.727 436 184.703 436.492 184.727 436.876C184.727 437.38 184.703 437.788 184.655 438.1C184.631 438.388 184.559 438.616 184.439 438.784C184.295 438.952 184.067 439.036 183.755 439.036L183.719 439L183.611 438.964C183.563 438.964 183.539 438.976 183.539 439H183.359C183.215 439.048 183.131 439.084 183.107 439.108C182.987 439.108 182.711 439.072 182.279 439L181.775 438.964C181.655 438.964 181.583 439.012 181.559 439.108H178.859H178.355L177.419 439.288L176.555 439.396L175.727 439.468ZM192.436 439.108H191.86H191.32H191.032L189.628 438.712L189.556 438.496C189.532 438.496 189.52 438.376 189.52 438.136C189.52 437.824 189.508 437.572 189.484 437.38L189.448 436.012C189.424 435.724 189.412 435.268 189.412 434.644C189.412 434.044 189.4 433.6 189.376 433.312V432.232C189.232 430.72 189.16 429.16 189.16 427.552V427.264V426.724C189.16 426.436 189.172 426.232 189.196 426.112V425.824V425.572C189.172 425.5 189.16 425.38 189.16 425.212V424.816V424.6V424.24V423.664C189.16 423.376 189.172 423.172 189.196 423.052V422.692L189.232 422.512V422.044C189.256 421.804 189.268 421.48 189.268 421.072C189.268 420.76 189.256 420.484 189.232 420.244L189.196 419.416L189.16 419.272C189.088 419.224 189.088 419.188 189.16 419.164C189.256 418.78 189.556 418.504 190.06 418.336C190.3 418.24 190.696 418.192 191.248 418.192C191.656 418.192 192.724 418.156 194.452 418.084C195.316 418.036 195.856 418.012 196.072 418.012C196.432 417.988 196.864 417.976 197.368 417.976C197.608 418 197.776 418.048 197.872 418.12C197.968 418.168 198.052 418.264 198.124 418.408C198.22 418.552 198.292 418.66 198.34 418.732L199.06 419.776C199.036 419.752 199.336 420.184 199.96 421.072C200.536 422.008 201.232 423.064 202.048 424.24C202.168 424.432 202.312 424.648 202.48 424.888C202.648 425.128 202.828 425.404 203.02 425.716V424.456C203.044 424.12 203.056 423.64 203.056 423.016C203.056 422.2 203.08 421.288 203.128 420.28C203.128 420.088 203.14 419.92 203.164 419.776C203.188 419.608 203.2 419.476 203.2 419.38C203.2 419.14 203.212 419.02 203.236 419.02C203.332 418.876 203.5 418.72 203.74 418.552C204.028 418.36 204.328 418.276 204.64 418.3H206.44H206.8C207.16 418.3 207.46 418.312 207.7 418.336H208.78C209.02 418.36 209.38 418.372 209.86 418.372H210.652H211.012C211.492 418.372 211.852 418.456 212.092 418.624C212.236 418.72 212.332 418.852 212.38 419.02C212.428 419.164 212.452 419.392 212.452 419.704C212.452 420.016 212.44 420.28 212.416 420.496C212.392 420.736 212.38 421.024 212.38 421.36V421.612C212.404 421.684 212.416 421.792 212.416 421.936V422.872L212.38 427.012V431.08V432.052C212.38 434.644 212.356 436.288 212.308 436.984L212.2 438.172C212.08 438.724 211.912 439.012 211.696 439.036C211.648 439.036 211.576 439.048 211.48 439.072C211.408 439.096 211.324 439.108 211.228 439.108C210.364 439.108 209.728 439.084 209.32 439.036H207.448H205.576H205.108C205.036 439.06 204.94 439.072 204.82 439.072C204.532 439.072 204.232 439.012 203.92 438.892C203.728 438.844 203.524 438.712 203.308 438.496L200.14 434.032C200.02 433.864 199.792 433.588 199.456 433.204L198.988 432.772C198.868 432.652 198.772 432.592 198.7 432.592C198.628 432.592 198.568 432.628 198.52 432.7C198.472 432.748 198.448 432.796 198.448 432.844V433.456C198.424 433.648 198.412 433.948 198.412 434.356V435.4C198.388 435.664 198.376 436.024 198.376 436.48V437.344V437.884C198.352 437.932 198.34 438.004 198.34 438.1C198.34 438.124 198.304 438.316 198.232 438.676C198.184 438.772 198.148 438.832 198.124 438.856C198.1 438.88 198.016 438.892 197.872 438.892C197.824 438.868 197.776 438.856 197.728 438.856C197.704 438.856 197.68 438.856 197.656 438.856C195.76 439.024 194.188 439.108 192.94 439.108H192.436ZM225.509 439.828C223.973 439.828 222.545 439.456 221.225 438.712C219.689 437.944 218.477 436.792 217.589 435.256C216.581 433.48 216.077 431.32 216.077 428.776C216.077 427.024 216.389 425.44 217.013 424.024C217.661 422.608 218.561 421.408 219.713 420.424C220.841 419.464 222.173 418.732 223.709 418.228C225.245 417.724 226.913 417.472 228.713 417.472C231.281 417.472 234.029 418.156 236.957 419.524L235.697 424.816C235.265 424.72 234.869 424.612 234.509 424.492C233.573 424.228 232.721 424.036 231.953 423.916C231.425 423.82 231.017 423.772 230.729 423.772C229.481 423.772 228.509 424.12 227.813 424.816C226.997 425.68 226.589 427.06 226.589 428.956C226.589 430.564 226.841 431.8 227.345 432.664C227.825 433.336 228.461 433.672 229.253 433.672C229.901 433.672 230.525 433.54 231.125 433.276C231.101 433.036 231.077 432.76 231.053 432.448C231.029 432.112 231.017 431.728 231.017 431.296C230.921 430.432 230.825 429.82 230.729 429.46V428.056C230.729 427.888 230.801 427.804 230.945 427.804H231.125C231.197 427.804 231.269 427.792 231.341 427.768C231.413 427.744 231.485 427.732 231.557 427.732C231.797 427.684 231.941 427.66 231.989 427.66C232.157 427.66 232.385 427.684 232.673 427.732C232.769 427.732 232.877 427.744 232.997 427.768C233.117 427.792 233.237 427.804 233.357 427.804C233.453 427.708 233.753 427.66 234.257 427.66C234.641 427.66 234.941 427.648 235.157 427.624C235.301 427.576 235.481 427.552 235.697 427.552L236.129 427.444C236.345 427.468 236.657 427.48 237.065 427.48C237.233 427.504 237.461 427.516 237.749 427.516C237.821 427.516 237.881 427.528 237.929 427.552C237.977 427.552 238.013 427.552 238.037 427.552H238.829L238.973 427.624V428.632C238.997 428.752 239.009 428.932 239.009 429.172V429.676V430.612V433.78V433.924C238.985 433.996 238.973 434.092 238.973 434.212C238.949 434.308 238.937 434.416 238.937 434.536V434.716C238.937 435.988 238.913 436.888 238.865 437.416C238.817 438.208 238.733 438.748 238.613 439.036C238.109 439.036 237.713 439.06 237.425 439.108H236.705H236.633H236.309L236.273 439.036L236.129 439.108H232.997H232.853H232.529H232.169C232.121 439.132 232.037 439.144 231.917 439.144C231.749 439.144 231.629 438.904 231.557 438.424C231.437 437.896 231.377 437.272 231.377 436.552C231.137 437.608 230.477 438.424 229.397 439C228.341 439.552 227.045 439.828 225.509 439.828Z" fill="white"/>
</svg>
