<svg width="250" height="348" viewBox="0 0 250 348" fill="none" xmlns="http://www.w3.org/2000/svg">
<mask id="mask0_1_35" style="mask-type:luminance" maskUnits="userSpaceOnUse" x="-25" y="-25" width="300" height="301">
<path d="M229.167 0.5H20.8333C9.3274 0.5 0 9.8274 0 21.3333V229.667C0 241.173 9.3274 250.5 20.8333 250.5H229.167C240.673 250.5 250 241.173 250 229.667V21.3333C250 9.8274 240.673 0.5 229.167 0.5Z" fill="white" stroke="white" stroke-width="50" stroke-linejoin="round"/>
<path d="M69.4445 90.7778V69.9445H180.556V90.7778M111.111 194.944H138.889M125 83.8333V194.944" stroke="black" stroke-width="50" stroke-linecap="round" stroke-linejoin="round"/>
</mask>
<g mask="url(#mask0_1_35)">
<path d="M0 20.5C0 9.4543 8.95431 0.5 20 0.5H230C241.046 0.5 250 9.45431 250 20.5V230.5C250 241.546 241.046 250.5 230 250.5H20C8.9543 250.5 0 241.546 0 230.5V20.5Z" fill="white"/>
</g>
<path d="M15.628 330.536C15.316 330.536 15.1 330.296 14.98 329.816C14.956 329.744 14.944 329.624 14.944 329.456C14.944 329.216 14.992 328.856 15.088 328.376C15.136 328.064 15.172 327.824 15.196 327.656C15.244 327.464 15.28 327.32 15.304 327.224C16.024 323.84 16.732 320.864 17.428 318.296L19.948 306.92C19.948 306.872 19.984 306.8 20.056 306.704C20.128 306.608 20.212 306.548 20.308 306.524H20.488C20.488 306.548 20.524 306.56 20.596 306.56C20.884 306.56 21.208 306.524 21.568 306.452C21.928 306.38 22.252 306.344 22.54 306.344C23.068 306.344 23.56 306.38 24.016 306.452C24.232 306.452 24.472 306.464 24.736 306.488C25 306.512 25.276 306.524 25.564 306.524C25.66 306.524 25.768 306.5 25.888 306.452H26.536H27.364L28.228 306.416C28.396 306.392 28.6 306.38 28.84 306.38C29.032 306.38 29.128 306.368 29.128 306.344H29.704H30.928H32.44C33.784 306.344 34.672 306.368 35.104 306.416C35.176 306.416 35.272 306.428 35.392 306.452C35.536 306.452 35.62 306.476 35.644 306.524C35.812 306.524 35.98 306.512 36.148 306.488C36.316 306.464 36.472 306.452 36.616 306.452C36.952 306.38 37.276 306.344 37.588 306.344C37.732 306.344 37.876 306.38 38.02 306.452C38.164 306.524 38.32 306.56 38.488 306.56L38.668 306.524H38.776C38.848 306.572 38.92 306.644 38.992 306.74C39.088 306.812 39.136 306.872 39.136 306.92L41.656 318.296C42.424 321.104 43.12 324.08 43.744 327.224C43.744 327.368 43.792 327.524 43.888 327.692C43.912 327.86 43.948 328.088 43.996 328.376C44.044 328.664 44.068 328.904 44.068 329.096C44.092 329.192 44.104 329.324 44.104 329.492C44.104 329.828 44.032 330.104 43.888 330.32C43.792 330.464 43.648 330.536 43.456 330.536H42.988C42.628 330.536 42.352 330.524 42.16 330.5H41.224H40.324H39.604C39.412 330.5 39.316 330.488 39.316 330.464H37.048V330.392C36.952 330.344 36.832 330.32 36.688 330.32C36.688 330.32 36.676 330.332 36.652 330.356C36.652 330.356 36.64 330.368 36.616 330.392C36.616 330.44 36.592 330.464 36.544 330.464H36.436H36.148C36.028 330.416 35.788 330.392 35.428 330.392C34.708 330.344 34.144 330.32 33.736 330.32C33.592 330.104 33.436 329.672 33.268 329.024C33.124 328.376 32.968 327.656 32.8 326.864C32.752 326.48 32.704 326.216 32.656 326.072C32.152 326.168 31.492 326.216 30.676 326.216H29.56H28.516L28.264 327.368C27.952 328.952 27.7 329.936 27.508 330.32C27.412 330.32 27.292 330.344 27.148 330.392C27.1 330.416 27.052 330.44 27.004 330.464C26.98 330.464 26.968 330.464 26.968 330.464H26.824C26.68 330.464 26.572 330.44 26.5 330.392C26.452 330.344 26.392 330.32 26.32 330.32L24.7 330.392H24.124H23.584C23.488 330.44 23.368 330.464 23.224 330.464H23.08H19.768H19.444C19.18 330.488 18.64 330.5 17.824 330.5H16.888C16.696 330.524 16.42 330.536 16.06 330.536H15.628ZM32.26 321.716C32.092 320.54 32.008 319.952 32.008 319.952C31.936 319.616 31.816 318.98 31.648 318.044C31.6 317.804 31.48 317.156 31.288 316.1C31.096 314.948 31 314.372 31 314.372C30.928 313.892 30.856 313.472 30.784 313.112L30.748 312.644C30.676 312.524 30.64 312.416 30.64 312.32L30.604 312.104C30.58 312.152 30.568 312.224 30.568 312.32C30.568 312.416 30.544 312.476 30.496 312.5V312.644L30.424 313.112C30.4 313.28 30.364 313.472 30.316 313.688C30.292 313.88 30.256 314.096 30.208 314.336L30.028 315.344C29.764 316.856 29.608 317.732 29.56 317.972C29.536 318.236 29.476 318.632 29.38 319.16C29.332 319.328 29.284 319.58 29.236 319.916L28.948 321.572H30.784L31.036 321.5H31.108C31.396 321.5 31.612 321.524 31.756 321.572C31.852 321.572 31.936 321.596 32.008 321.644C32.104 321.668 32.188 321.692 32.26 321.716ZM55.3709 331.04C54.4109 331.088 53.5949 331.064 52.9229 330.968C52.3709 330.848 51.8669 330.68 51.4109 330.464C50.9549 330.248 50.5349 329.912 50.1509 329.456C49.3829 328.496 48.8669 327.236 48.6029 325.676C48.4109 324.404 48.3389 323.012 48.3869 321.5V319.916C48.3869 319.7 48.3989 319.532 48.4229 319.412V318.692V318.044V317.684L48.5309 317.432C48.5309 317.408 48.5309 317.372 48.5309 317.324C48.5549 317.276 48.5669 317.192 48.5669 317.072C48.6389 316.208 48.6749 315.512 48.6749 314.984L48.7469 313.652C48.7709 313.052 48.7829 312.356 48.7829 311.564C48.7829 311.252 48.7709 311.036 48.7469 310.916C48.6989 310.628 48.6749 310.4 48.6749 310.232C48.6749 309.872 49.0469 309.692 49.7909 309.692H50.2949C50.5829 309.692 50.7749 309.668 50.8709 309.62L55.2629 309.692C55.2629 309.692 55.2749 309.716 55.2989 309.764C55.3469 309.788 55.3829 309.8 55.4069 309.8L55.6949 309.692C56.9429 309.692 57.7469 309.812 58.1069 310.052C58.3469 310.22 58.5149 310.472 58.6109 310.808C58.7309 311.144 58.7909 311.6 58.7909 312.176C58.7909 312.56 58.8149 313.088 58.8629 313.76C58.9109 314.096 58.9349 314.624 58.9349 315.344V315.704C58.8869 316.4 58.8389 317.54 58.7909 319.124L58.7549 320.852V322.4C58.7069 322.688 58.6829 323.072 58.6829 323.552V324.092V324.632C58.6589 324.968 58.7069 325.436 58.8269 326.036C58.9469 326.228 59.0549 326.324 59.1509 326.324C59.2949 326.324 59.8349 326.144 60.7709 325.784L61.6349 325.352C61.8749 325.256 61.9949 325.16 61.9949 325.064V313.22C61.9229 312.716 61.8869 312.32 61.8869 312.032C61.8629 311.912 61.8509 311.732 61.8509 311.492V310.952V310.592C61.8509 310.304 61.9109 310.1 62.0309 309.98C62.0789 309.908 62.1989 309.872 62.3909 309.872C62.4389 309.872 62.4869 309.896 62.5349 309.944C62.5829 309.968 62.6069 310.004 62.6069 310.052V310.124C62.8469 310.028 63.3629 309.944 64.1549 309.872C64.8029 309.8 65.5229 309.764 66.3149 309.764H67.2149H67.7909H68.4749L72.2549 309.872C72.3029 309.872 72.3389 309.884 72.3629 309.908C72.4109 309.932 72.4349 309.956 72.4349 309.98C72.4589 309.98 72.4709 309.992 72.4709 310.016C72.4709 310.04 72.4709 310.052 72.4709 310.052V310.232C72.4469 310.232 72.4349 310.268 72.4349 310.34L72.6149 310.304C72.6389 310.256 72.6749 310.232 72.7229 310.232C72.7949 310.232 72.8309 310.292 72.8309 310.412C72.8309 314.612 72.8069 318.104 72.7589 320.888C72.7349 323.648 72.6389 326.444 72.4709 329.276C72.4709 329.396 72.3749 329.576 72.1829 329.816C72.0869 329.936 72.0029 330.032 71.9309 330.104C71.9069 330.152 71.8709 330.188 71.8229 330.212C71.7749 330.236 71.7389 330.26 71.7149 330.284C71.6909 330.26 71.6069 330.236 71.4629 330.212C71.3189 330.164 71.1989 330.14 71.1029 330.14L70.9949 330.212C70.9469 330.26 70.8989 330.284 70.8509 330.284C69.8909 330.452 68.3789 330.536 66.3149 330.536H64.7309C64.1309 330.536 63.6029 330.488 63.1469 330.392C62.9789 330.272 62.7989 329.972 62.6069 329.492C62.5829 329.324 62.5349 329.18 62.4629 329.06C62.4149 328.94 62.3549 328.88 62.2829 328.88C62.0909 328.88 61.7909 329.012 61.3829 329.276C61.3349 329.324 61.2629 329.384 61.1669 329.456C61.0949 329.504 61.0229 329.564 60.9509 329.636C60.7589 329.78 60.6269 329.9 60.5549 329.996C59.9069 330.356 59.1389 330.62 58.2509 330.788C57.6509 330.932 57.0989 331.004 56.5949 331.004C56.0429 331.004 55.6349 331.016 55.3709 331.04ZM87.4038 330.608H85.7478H83.8758H81.4998C81.2838 330.272 81.1398 329.66 81.0678 328.772C80.9718 327.98 80.9238 326.828 80.9238 325.316L80.9598 321.356C80.9838 320.396 80.9958 318.872 80.9958 316.784L80.8878 316.676H77.3238C76.7958 316.676 76.4478 316.076 76.2798 314.876C76.1838 314.228 76.1358 313.28 76.1358 312.032V311.564C76.1838 311.396 76.2078 311.132 76.2078 310.772V310.052L76.2438 309.764L76.3878 309.62L77.0358 309.656H77.7558C78.8118 309.656 79.6158 309.644 80.1678 309.62H82.5078H83.1558H84.3798H85.9278H87.4758C87.7878 309.644 88.2318 309.656 88.8078 309.656H89.7078C89.8038 309.608 89.9598 309.584 90.1758 309.584C90.3438 309.536 90.4998 309.512 90.6438 309.512C91.0998 309.512 91.4478 309.536 91.6878 309.584C92.1678 309.632 92.5278 309.656 92.7678 309.656L93.7038 309.62H95.1078C95.8278 309.62 96.3198 309.632 96.5838 309.656L97.0878 309.692C97.1118 309.716 97.1478 309.752 97.1958 309.8C97.2438 309.824 97.2678 309.848 97.2678 309.872V315.992C97.2678 316.136 97.1838 316.292 97.0158 316.46C96.8718 316.628 96.7278 316.736 96.5838 316.784C95.7918 316.616 94.7598 316.532 93.4878 316.532H92.1198C91.7598 316.532 91.5198 316.988 91.3998 317.9C91.3518 318.164 91.3278 318.548 91.3278 319.052V320.132C91.3278 320.612 91.3398 320.972 91.3638 321.212V322.22C91.3638 323.204 91.3158 324.116 91.2198 324.956C91.1718 325.58 91.1478 326.036 91.1478 326.324C91.0998 326.612 91.0758 327.008 91.0758 327.512C91.0758 328.232 91.0518 328.832 91.0038 329.312C90.9798 330.056 90.7038 330.452 90.1758 330.5C89.5998 330.572 89.2638 330.608 89.1678 330.608H87.4038ZM111.067 331.4C110.875 331.4 110.611 331.376 110.275 331.328C110.107 331.28 109.843 331.256 109.483 331.256C108.571 331.256 107.443 331.052 106.099 330.644H105.847C105.679 330.644 105.499 330.596 105.307 330.5C105.259 330.452 105.199 330.416 105.127 330.392C105.055 330.344 104.971 330.284 104.875 330.212L104.119 329.78C103.399 329.372 102.763 328.808 102.211 328.088C101.659 327.344 101.215 326.528 100.879 325.64C100.231 324.008 99.9074 322.34 99.9074 320.636C99.9074 318.74 100.291 316.916 101.059 315.164C101.875 313.316 102.967 311.852 104.335 310.772C105.847 309.572 107.527 308.972 109.375 308.972C109.951 308.972 110.395 308.996 110.707 309.044C110.707 308.996 110.743 308.972 110.815 308.972H110.923C112.603 308.972 114.103 309.032 115.423 309.152C116.551 309.32 117.595 309.668 118.555 310.196C120.475 311.468 121.855 312.86 122.695 314.372C123.583 316.052 124.027 318.032 124.027 320.312C124.027 322.592 123.487 324.728 122.407 326.72L122.047 327.296C121.951 327.44 121.891 327.512 121.867 327.512L121.759 327.692L121.507 327.836C120.475 329.372 118.915 330.416 116.827 330.968C115.435 331.256 113.515 331.4 111.067 331.4ZM111.679 328.7C111.895 328.7 112.063 328.568 112.183 328.304C112.471 327.872 112.711 327.032 112.903 325.784C112.927 325.568 112.987 325.088 113.083 324.344C113.179 323.6 113.239 322.904 113.263 322.256C113.359 320.624 113.407 319.616 113.407 319.232V318.404V318.116C113.407 317.252 113.371 316.508 113.299 315.884C113.227 314.9 113.083 314.12 112.867 313.544C112.651 313.256 112.483 313.112 112.363 313.112C112.123 313.112 111.895 313.292 111.679 313.652C111.463 314.012 111.295 314.672 111.175 315.632L110.419 321.392V322.112V322.58C110.491 323.588 110.527 324.248 110.527 324.56L110.599 325.424L110.707 326.576C110.707 326.768 110.731 326.936 110.779 327.08L111.175 328.412C111.199 328.508 111.259 328.58 111.355 328.628C111.475 328.676 111.583 328.7 111.679 328.7ZM142.772 330.536C142.436 330.536 142.184 330.308 142.016 329.852C141.656 329.06 141.476 327.62 141.476 325.532C141.476 323.516 141.512 321.2 141.584 318.584C141.608 317.744 141.62 316.448 141.62 314.696L141.512 314.552H137.516C137.204 314.552 136.952 314.384 136.76 314.048C136.592 313.688 136.46 313.196 136.364 312.572C136.244 311.852 136.184 310.82 136.184 309.476V308.972C136.184 308.732 136.196 308.54 136.22 308.396V307.856V307.532C136.22 307.388 136.292 307.268 136.436 307.172C136.58 307.052 136.748 306.968 136.94 306.92C137.18 306.848 137.54 306.812 138.02 306.812H140.756C141.356 306.812 141.812 306.824 142.124 306.848L143.456 306.884H156.416C157.352 306.884 157.964 306.896 158.252 306.92C158.372 306.944 158.54 306.968 158.756 306.992C158.972 307.016 159.128 307.064 159.224 307.136C159.392 307.208 159.488 307.304 159.512 307.424C159.56 307.52 159.584 307.676 159.584 307.892V313.832C159.584 314.096 159.476 314.276 159.26 314.372C159.116 314.42 158.924 314.444 158.684 314.444H157.532H156.344C155.792 314.444 155.372 314.42 155.084 314.372H154.004C153.788 314.372 153.668 314.42 153.644 314.516C153.644 314.54 153.632 314.576 153.608 314.624C153.584 314.648 153.572 314.684 153.572 314.732V315.272V316.496C153.572 316.856 153.56 317.132 153.536 317.324C153.536 318.02 153.488 319.544 153.392 321.896L153.32 322.976C153.272 323.984 153.224 324.716 153.176 325.172V328.592C153.176 329.408 153.008 329.924 152.672 330.14C152.36 330.26 152.144 330.332 152.024 330.356L151.124 330.392C150.188 330.392 149.528 330.416 149.144 330.464L145.364 330.5C144.884 330.524 144.02 330.536 142.772 330.536ZM164.288 330.356C164.24 330.356 164.204 330.308 164.18 330.212C164.012 329.996 163.892 329.732 163.82 329.42C163.748 329.3 163.688 329.144 163.64 328.952C163.424 328.52 163.268 327.92 163.172 327.152C163.076 326.048 163.028 325.172 163.028 324.524C163.004 324.236 162.992 323.84 162.992 323.336V322.472C162.992 321.752 162.98 321.188 162.956 320.78C162.932 320.348 162.92 319.496 162.92 318.224C162.92 314.816 162.992 312.188 163.136 310.34C163.136 310.052 163.544 309.836 164.36 309.692H165.44H166.34C167.708 309.692 168.728 309.716 169.4 309.764C170.408 309.836 171.428 309.872 172.46 309.872C172.7 309.872 172.88 309.86 173 309.836H173.54L173.72 309.98C174.512 309.812 175.328 309.704 176.168 309.656C177.008 309.608 178.028 309.584 179.228 309.584C179.276 309.584 179.336 309.62 179.408 309.692H180.56C180.752 309.692 180.896 309.8 180.992 310.016C181.112 310.232 181.208 310.544 181.28 310.952C181.376 311.264 181.448 311.648 181.496 312.104C181.592 312.704 181.676 313.1 181.748 313.292C181.748 313.964 181.628 314.3 181.388 314.3C181.364 314.3 181.328 314.264 181.28 314.192L181.136 314.156C181.016 314.132 180.884 314.144 180.74 314.192C180.596 314.264 180.44 314.3 180.272 314.3C180.128 314.3 180.008 314.264 179.912 314.192C179.864 314.168 179.756 314.156 179.588 314.156C179.372 314.156 179.12 314.192 178.832 314.264C178.736 314.288 178.544 314.324 178.256 314.372C177.992 314.42 177.68 314.444 177.32 314.444C176.288 314.444 175.544 314.468 175.088 314.516C174.824 314.54 174.572 314.612 174.332 314.732V314.66C174.236 314.66 174.152 314.78 174.08 315.02C173.912 315.428 173.804 315.992 173.756 316.712C173.732 316.928 173.72 317.168 173.72 317.432C173.72 317.696 173.756 317.876 173.828 317.972C173.924 318.068 174.068 318.116 174.26 318.116C174.404 318.116 174.524 318.068 174.62 317.972C174.668 317.972 174.728 317.984 174.8 318.008C174.872 318.032 174.932 318.068 174.98 318.116H178.04C178.064 318.068 178.1 318.032 178.148 318.008C178.196 317.984 178.244 317.972 178.292 317.972C178.532 317.972 178.712 318.008 178.832 318.08C178.976 318.152 179.264 318.224 179.696 318.296C179.936 318.296 180.104 318.368 180.2 318.512C180.32 318.68 180.38 318.836 180.38 318.98L181.136 321.356C181.208 321.74 180.848 321.992 180.056 322.112C179.6 322.208 178.724 322.256 177.428 322.256H175.88H174.8C174.464 322.256 174.212 322.28 174.044 322.328C173.876 322.352 173.768 322.436 173.72 322.58C173.624 322.7 173.576 322.892 173.576 323.156V323.3C173.576 323.42 173.588 323.504 173.612 323.552L173.576 324.344C173.552 324.512 173.54 324.764 173.54 325.1V325.46V325.784V326C174.62 326 175.724 325.964 176.852 325.892C177.956 325.82 179.048 325.784 180.128 325.784C180.2 325.784 180.26 325.844 180.308 325.964C180.356 326.06 180.38 326.18 180.38 326.324C180.428 326.468 180.452 326.624 180.452 326.792C180.5 327.152 180.572 327.488 180.668 327.8L180.92 328.844V329.564V329.672V329.96L180.632 330.212H180.38H180.272C180.008 330.212 179.84 330.2 179.768 330.176C179.696 330.128 179.612 330.104 179.516 330.104C179.468 330.128 179.396 330.164 179.3 330.212C179.204 330.26 179.12 330.308 179.048 330.356V330.176L178.616 330.212H178.076C177.98 330.212 177.908 330.188 177.86 330.14L177.572 330.104C176.684 330.104 176.06 330.188 175.7 330.356H164.288ZM193.441 330.68C193.249 330.632 192.673 330.608 191.713 330.608C191.137 330.608 190.693 330.584 190.381 330.536C189.109 330.536 188.185 330.524 187.609 330.5C187.177 330.5 186.781 330.464 186.421 330.392H186.313C186.145 330.392 186.061 330.32 186.061 330.176V329.816C186.061 329.576 186.241 329.132 186.601 328.484C186.889 327.788 187.213 327.152 187.573 326.576C188.101 325.688 188.389 325.208 188.437 325.136C188.581 324.944 188.785 324.536 189.049 323.912C189.241 323.648 189.397 323.348 189.517 323.012L190.021 322.076C190.261 321.596 190.681 320.768 191.281 319.592C191.185 319.472 191.065 319.292 190.921 319.052C190.873 318.932 190.777 318.752 190.633 318.512C190.513 318.344 190.405 318.152 190.309 317.936L190.021 317.432L189.373 316.424C189.277 316.28 189.145 316.076 188.977 315.812C188.809 315.548 188.677 315.308 188.581 315.092L188.149 314.444C188.053 314.228 187.921 314.024 187.753 313.832L187.141 312.752C187.021 312.584 186.901 312.44 186.781 312.32C186.709 312.224 186.577 312.044 186.385 311.78C186.217 311.516 186.073 311.264 185.953 311.024C185.593 310.304 185.413 309.8 185.413 309.512L186.241 309.404L186.601 309.44C186.985 309.44 187.297 309.452 187.537 309.476L190.381 309.512C191.221 309.608 192.133 309.656 193.117 309.656C193.357 309.68 193.669 309.692 194.053 309.692H194.449C194.545 309.692 194.689 309.812 194.881 310.052C195.097 310.316 195.529 310.976 196.177 312.032C196.369 312.344 196.777 313.04 197.401 314.12C197.497 314.24 197.557 314.336 197.581 314.408C197.605 314.48 197.629 314.528 197.653 314.552C197.653 314.624 197.665 314.708 197.689 314.804C197.737 314.876 197.773 314.936 197.797 314.984L197.869 315.092L197.941 315.2C198.061 315.128 198.121 315.068 198.121 315.02C198.313 314.876 198.517 314.576 198.733 314.12C199.357 313.04 199.765 312.344 199.957 312.032C200.533 311.096 200.977 310.436 201.289 310.052C201.481 309.812 201.625 309.692 201.721 309.692H202.369C204.217 309.596 205.381 309.536 205.861 309.512C207.037 309.512 208.177 309.488 209.281 309.44L209.893 309.404L210.721 309.512C210.721 309.848 210.541 310.304 210.181 310.88L209.353 311.996C209.281 312.068 209.173 312.236 209.029 312.5C208.861 312.764 208.645 313.124 208.381 313.58L206.797 316.352L206.113 317.432L205.861 317.936C205.477 318.392 205.189 318.764 204.997 319.052C204.805 319.292 204.673 319.472 204.601 319.592C204.841 320.024 205.153 320.624 205.537 321.392C205.753 321.704 206.005 322.148 206.293 322.724C206.389 322.916 206.485 323.096 206.581 323.264C206.677 323.408 206.749 323.528 206.797 323.624C206.965 323.816 207.133 324.092 207.301 324.452L208.741 326.972C209.317 328.076 209.689 328.88 209.857 329.384C210.001 329.672 210.073 329.912 210.073 330.104V330.464C210.073 330.608 209.989 330.68 209.821 330.68H209.713C209.257 330.68 208.885 330.668 208.597 330.644L205.933 330.608H204.673C203.737 330.608 203.185 330.632 203.017 330.68H202.945C202.801 330.68 202.633 330.632 202.441 330.536C202.201 330.464 202.093 330.44 202.117 330.464L201.973 330.392H201.793C201.769 330.416 201.733 330.44 201.685 330.464C201.661 330.464 201.649 330.464 201.649 330.464L200.929 329.78V329.564C200.929 329.516 200.905 329.492 200.857 329.492C200.833 329.564 200.761 329.54 200.641 329.42L199.021 326.612L198.517 325.604C198.469 325.532 198.409 325.448 198.337 325.352C198.265 325.256 198.205 325.184 198.157 325.136C198.061 324.992 197.989 324.92 197.941 324.92L197.113 326.612L196.141 328.772L195.493 329.78L194.773 330.464L194.449 330.392C194.401 330.392 194.365 330.416 194.341 330.464C194.245 330.488 194.137 330.512 194.017 330.536C193.921 330.584 193.813 330.62 193.693 330.644L193.441 330.68ZM225.076 330.608H223.42H221.548H219.172C218.956 330.272 218.812 329.66 218.74 328.772C218.644 327.98 218.596 326.828 218.596 325.316L218.632 321.356C218.656 320.396 218.668 318.872 218.668 316.784L218.56 316.676H214.996C214.468 316.676 214.12 316.076 213.952 314.876C213.856 314.228 213.808 313.28 213.808 312.032V311.564C213.856 311.396 213.88 311.132 213.88 310.772V310.052L213.916 309.764L214.06 309.62L214.708 309.656H215.428C216.484 309.656 217.288 309.644 217.84 309.62H220.18H220.828H222.052H223.6H225.148C225.46 309.644 225.904 309.656 226.48 309.656H227.38C227.476 309.608 227.632 309.584 227.848 309.584C228.016 309.536 228.172 309.512 228.316 309.512C228.772 309.512 229.12 309.536 229.36 309.584C229.84 309.632 230.2 309.656 230.44 309.656L231.376 309.62H232.78C233.5 309.62 233.992 309.632 234.256 309.656L234.76 309.692C234.784 309.716 234.82 309.752 234.868 309.8C234.916 309.824 234.94 309.848 234.94 309.872V315.992C234.94 316.136 234.856 316.292 234.688 316.46C234.544 316.628 234.4 316.736 234.256 316.784C233.464 316.616 232.432 316.532 231.16 316.532H229.792C229.432 316.532 229.192 316.988 229.072 317.9C229.024 318.164 229 318.548 229 319.052V320.132C229 320.612 229.012 320.972 229.036 321.212V322.22C229.036 323.204 228.988 324.116 228.892 324.956C228.844 325.58 228.82 326.036 228.82 326.324C228.772 326.612 228.748 327.008 228.748 327.512C228.748 328.232 228.724 328.832 228.676 329.312C228.652 330.056 228.376 330.452 227.848 330.5C227.272 330.572 226.936 330.608 226.84 330.608H225.076Z" fill="white"/>
</svg>
