<svg width="300" height="334" viewBox="0 0 300 334" fill="none" xmlns="http://www.w3.org/2000/svg">
<path fill-rule="evenodd" clip-rule="evenodd" d="M15.7895 0.078949C11.6018 0.078949 7.58573 1.74248 4.62463 4.70358C1.66353 7.66468 0 11.6808 0 15.8684V221.132C0 225.319 1.66353 229.335 4.62463 232.296C7.58573 235.258 11.6018 236.921 15.7895 236.921H284.211C288.398 236.921 292.414 235.258 295.375 232.296C298.336 229.335 300 225.319 300 221.132V15.8684C300 11.6808 298.336 7.66468 295.375 4.70358C292.414 1.74248 288.398 0.078949 284.211 0.078949H15.7895ZM236.842 31.6579H252.632C254.725 31.6579 256.733 32.4897 258.214 33.9702C259.695 35.4508 260.526 37.4588 260.526 39.5526V55.3421C260.526 57.4359 259.695 59.444 258.214 60.9245C256.733 62.4051 254.725 63.2368 252.632 63.2368H236.842C234.748 63.2368 232.74 62.4051 231.26 60.9245C229.779 59.444 228.947 57.4359 228.947 55.3421V39.5526C228.947 37.4588 229.779 35.4508 231.26 33.9702C232.74 32.4897 234.748 31.6579 236.842 31.6579ZM252.632 79.0263H236.842C234.748 79.0263 232.74 79.8581 231.26 81.3386C229.779 82.8192 228.947 84.8272 228.947 86.9211V102.711C228.947 104.804 229.779 106.812 231.26 108.293C232.74 109.774 234.748 110.605 236.842 110.605H252.632C254.725 110.605 256.733 109.774 258.214 108.293C259.695 106.812 260.526 104.804 260.526 102.711V86.9211C260.526 84.8272 259.695 82.8192 258.214 81.3386C256.733 79.8581 254.725 79.0263 252.632 79.0263ZM236.842 126.395H252.632C254.725 126.395 256.733 127.227 258.214 128.707C259.695 130.188 260.526 132.196 260.526 134.289V150.079C260.526 152.173 259.695 154.181 258.214 155.661C256.733 157.142 254.725 157.974 252.632 157.974H236.842C234.748 157.974 232.74 157.142 231.26 155.661C229.779 154.181 228.947 152.173 228.947 150.079V134.289C228.947 132.196 229.779 130.188 231.26 128.707C232.74 127.227 234.748 126.395 236.842 126.395ZM252.632 173.763H236.842C234.748 173.763 232.74 174.595 231.26 176.075C229.779 177.556 228.947 179.564 228.947 181.658V197.447C228.947 199.541 229.779 201.549 231.26 203.03C232.74 204.51 234.748 205.342 236.842 205.342H252.632C254.725 205.342 256.733 204.51 258.214 203.03C259.695 201.549 260.526 199.541 260.526 197.447V181.658C260.526 179.564 259.695 177.556 258.214 176.075C256.733 174.595 254.725 173.763 252.632 173.763ZM47.3684 31.6579H63.1579C65.2517 31.6579 67.2598 32.4897 68.7403 33.9702C70.2209 35.4508 71.0526 37.4588 71.0526 39.5526V55.3421C71.0526 57.4359 70.2209 59.444 68.7403 60.9245C67.2598 62.4051 65.2517 63.2368 63.1579 63.2368H47.3684C45.2746 63.2368 43.2666 62.4051 41.786 60.9245C40.3055 59.444 39.4737 57.4359 39.4737 55.3421V39.5526C39.4737 37.4588 40.3055 35.4508 41.786 33.9702C43.2666 32.4897 45.2746 31.6579 47.3684 31.6579ZM63.1579 79.0263H47.3684C45.2746 79.0263 43.2666 79.8581 41.786 81.3386C40.3055 82.8192 39.4737 84.8272 39.4737 86.9211V102.711C39.4737 104.804 40.3055 106.812 41.786 108.293C43.2666 109.774 45.2746 110.605 47.3684 110.605H63.1579C65.2517 110.605 67.2598 109.774 68.7403 108.293C70.2209 106.812 71.0526 104.804 71.0526 102.711V86.9211C71.0526 84.8272 70.2209 82.8192 68.7403 81.3386C67.2598 79.8581 65.2517 79.0263 63.1579 79.0263ZM47.3684 126.395H63.1579C65.2517 126.395 67.2598 127.227 68.7403 128.707C70.2209 130.188 71.0526 132.196 71.0526 134.289V150.079C71.0526 152.173 70.2209 154.181 68.7403 155.661C67.2598 157.142 65.2517 157.974 63.1579 157.974H47.3684C45.2746 157.974 43.2666 157.142 41.786 155.661C40.3055 154.181 39.4737 152.173 39.4737 150.079V134.289C39.4737 132.196 40.3055 130.188 41.786 128.707C43.2666 127.227 45.2746 126.395 47.3684 126.395ZM63.1579 173.763H47.3684C45.2746 173.763 43.2666 174.595 41.786 176.075C40.3055 177.556 39.4737 179.564 39.4737 181.658V197.447C39.4737 199.541 40.3055 201.549 41.786 203.03C43.2666 204.51 45.2746 205.342 47.3684 205.342H63.1579C65.2517 205.342 67.2598 204.51 68.7403 203.03C70.2209 201.549 71.0526 199.541 71.0526 197.447V181.658C71.0526 179.564 70.2209 177.556 68.7403 176.075C67.2598 174.595 65.2517 173.763 63.1579 173.763ZM94.7368 205.342V31.6579H205.263V205.342H94.7368Z" fill="white"/>
<path d="M24.128 316.957C23.816 316.957 23.6 316.717 23.48 316.237C23.456 316.165 23.444 316.045 23.444 315.877C23.444 315.637 23.492 315.277 23.588 314.797C23.636 314.485 23.672 314.245 23.696 314.077C23.744 313.885 23.78 313.741 23.804 313.645C24.524 310.261 25.232 307.285 25.928 304.717L28.448 293.341C28.448 293.293 28.484 293.221 28.556 293.125C28.628 293.029 28.712 292.969 28.808 292.945H28.988C28.988 292.969 29.024 292.981 29.096 292.981C29.384 292.981 29.708 292.945 30.068 292.873C30.428 292.801 30.752 292.765 31.04 292.765C31.568 292.765 32.06 292.801 32.516 292.873C32.732 292.873 32.972 292.885 33.236 292.909C33.5 292.933 33.776 292.945 34.064 292.945C34.16 292.945 34.268 292.921 34.388 292.873H35.036H35.864L36.728 292.837C36.896 292.813 37.1 292.801 37.34 292.801C37.532 292.801 37.628 292.789 37.628 292.765H38.204H39.428H40.94C42.284 292.765 43.172 292.789 43.604 292.837C43.676 292.837 43.772 292.849 43.892 292.873C44.036 292.873 44.12 292.897 44.144 292.945C44.312 292.945 44.48 292.933 44.648 292.909C44.816 292.885 44.972 292.873 45.116 292.873C45.452 292.801 45.776 292.765 46.088 292.765C46.232 292.765 46.376 292.801 46.52 292.873C46.664 292.945 46.82 292.981 46.988 292.981L47.168 292.945H47.276C47.348 292.993 47.42 293.065 47.492 293.161C47.588 293.233 47.636 293.293 47.636 293.341L50.156 304.717C50.924 307.525 51.62 310.501 52.244 313.645C52.244 313.789 52.292 313.945 52.388 314.113C52.412 314.281 52.448 314.509 52.496 314.797C52.544 315.085 52.568 315.325 52.568 315.517C52.592 315.613 52.604 315.745 52.604 315.913C52.604 316.249 52.532 316.525 52.388 316.741C52.292 316.885 52.148 316.957 51.956 316.957H51.488C51.128 316.957 50.852 316.945 50.66 316.921H49.724H48.824H48.104C47.912 316.921 47.816 316.909 47.816 316.885H45.548V316.813C45.452 316.765 45.332 316.741 45.188 316.741C45.188 316.741 45.176 316.753 45.152 316.777C45.152 316.777 45.14 316.789 45.116 316.813C45.116 316.861 45.092 316.885 45.044 316.885H44.936H44.648C44.528 316.837 44.288 316.813 43.928 316.813C43.208 316.765 42.644 316.741 42.236 316.741C42.092 316.525 41.936 316.093 41.768 315.445C41.624 314.797 41.468 314.077 41.3 313.285C41.252 312.901 41.204 312.637 41.156 312.493C40.652 312.589 39.992 312.637 39.176 312.637H38.06H37.016L36.764 313.789C36.452 315.373 36.2 316.357 36.008 316.741C35.912 316.741 35.792 316.765 35.648 316.813C35.6 316.837 35.552 316.861 35.504 316.885C35.48 316.885 35.468 316.885 35.468 316.885H35.324C35.18 316.885 35.072 316.861 35 316.813C34.952 316.765 34.892 316.741 34.82 316.741L33.2 316.813H32.624H32.084C31.988 316.861 31.868 316.885 31.724 316.885H31.58H28.268H27.944C27.68 316.909 27.14 316.921 26.324 316.921H25.388C25.196 316.945 24.92 316.957 24.56 316.957H24.128ZM40.76 308.137C40.592 306.961 40.508 306.373 40.508 306.373C40.436 306.037 40.316 305.401 40.148 304.465C40.1 304.225 39.98 303.577 39.788 302.521C39.596 301.369 39.5 300.793 39.5 300.793C39.428 300.313 39.356 299.893 39.284 299.533L39.248 299.065C39.176 298.945 39.14 298.837 39.14 298.741L39.104 298.525C39.08 298.573 39.068 298.645 39.068 298.741C39.068 298.837 39.044 298.897 38.996 298.921V299.065L38.924 299.533C38.9 299.701 38.864 299.893 38.816 300.109C38.792 300.301 38.756 300.517 38.708 300.757L38.528 301.765C38.264 303.277 38.108 304.153 38.06 304.393C38.036 304.657 37.976 305.053 37.88 305.581C37.832 305.749 37.784 306.001 37.736 306.337L37.448 307.993H39.284L39.536 307.921H39.608C39.896 307.921 40.112 307.945 40.256 307.993C40.352 307.993 40.436 308.017 40.508 308.065C40.604 308.089 40.688 308.113 40.76 308.137ZM63.8709 317.461C62.9109 317.509 62.0949 317.485 61.4229 317.389C60.8709 317.269 60.3669 317.101 59.9109 316.885C59.4549 316.669 59.0349 316.333 58.6509 315.877C57.8829 314.917 57.3669 313.657 57.1029 312.097C56.9109 310.825 56.8389 309.433 56.8869 307.921V306.337C56.8869 306.121 56.8989 305.953 56.9229 305.833V305.113V304.465V304.105L57.0309 303.853C57.0309 303.829 57.0309 303.793 57.0309 303.745C57.0549 303.697 57.0669 303.613 57.0669 303.493C57.1389 302.629 57.1749 301.933 57.1749 301.405L57.2469 300.073C57.2709 299.473 57.2829 298.777 57.2829 297.985C57.2829 297.673 57.2709 297.457 57.2469 297.337C57.1989 297.049 57.1749 296.821 57.1749 296.653C57.1749 296.293 57.5469 296.113 58.2909 296.113H58.7949C59.0829 296.113 59.2749 296.089 59.3709 296.041L63.7629 296.113C63.7629 296.113 63.7749 296.137 63.7989 296.185C63.8469 296.209 63.8829 296.221 63.9069 296.221L64.1949 296.113C65.4429 296.113 66.2469 296.233 66.6069 296.473C66.8469 296.641 67.0149 296.893 67.1109 297.229C67.2309 297.565 67.2909 298.021 67.2909 298.597C67.2909 298.981 67.3149 299.509 67.3629 300.181C67.4109 300.517 67.4349 301.045 67.4349 301.765V302.125C67.3869 302.821 67.3389 303.961 67.2909 305.545L67.2549 307.273V308.821C67.2069 309.109 67.1829 309.493 67.1829 309.973V310.513V311.053C67.1589 311.389 67.2069 311.857 67.3269 312.457C67.4469 312.649 67.5549 312.745 67.6509 312.745C67.7949 312.745 68.3349 312.565 69.2709 312.205L70.1349 311.773C70.3749 311.677 70.4949 311.581 70.4949 311.485V299.641C70.4229 299.137 70.3869 298.741 70.3869 298.453C70.3629 298.333 70.3509 298.153 70.3509 297.913V297.373V297.013C70.3509 296.725 70.4109 296.521 70.5309 296.401C70.5789 296.329 70.6989 296.293 70.8909 296.293C70.9389 296.293 70.9869 296.317 71.0349 296.365C71.0829 296.389 71.1069 296.425 71.1069 296.473V296.545C71.3469 296.449 71.8629 296.365 72.6549 296.293C73.3029 296.221 74.0229 296.185 74.8149 296.185H75.7149H76.2909H76.9749L80.7549 296.293C80.8029 296.293 80.8389 296.305 80.8629 296.329C80.9109 296.353 80.9349 296.377 80.9349 296.401C80.9589 296.401 80.9709 296.413 80.9709 296.437C80.9709 296.461 80.9709 296.473 80.9709 296.473V296.653C80.9469 296.653 80.9349 296.689 80.9349 296.761L81.1149 296.725C81.1389 296.677 81.1749 296.653 81.2229 296.653C81.2949 296.653 81.3309 296.713 81.3309 296.833C81.3309 301.033 81.3069 304.525 81.2589 307.309C81.2349 310.069 81.1389 312.865 80.9709 315.697C80.9709 315.817 80.8749 315.997 80.6829 316.237C80.5869 316.357 80.5029 316.453 80.4309 316.525C80.4069 316.573 80.3709 316.609 80.3229 316.633C80.2749 316.657 80.2389 316.681 80.2149 316.705C80.1909 316.681 80.1069 316.657 79.9629 316.633C79.8189 316.585 79.6989 316.561 79.6029 316.561L79.4949 316.633C79.4469 316.681 79.3989 316.705 79.3509 316.705C78.3909 316.873 76.8789 316.957 74.8149 316.957H73.2309C72.6309 316.957 72.1029 316.909 71.6469 316.813C71.4789 316.693 71.2989 316.393 71.1069 315.913C71.0829 315.745 71.0349 315.601 70.9629 315.481C70.9149 315.361 70.8549 315.301 70.7829 315.301C70.5909 315.301 70.2909 315.433 69.8829 315.697C69.8349 315.745 69.7629 315.805 69.6669 315.877C69.5949 315.925 69.5229 315.985 69.4509 316.057C69.2589 316.201 69.1269 316.321 69.0549 316.417C68.4069 316.777 67.6389 317.041 66.7509 317.209C66.1509 317.353 65.5989 317.425 65.0949 317.425C64.5429 317.425 64.1349 317.437 63.8709 317.461ZM95.9038 317.029H94.2478H92.3758H89.9998C89.7838 316.693 89.6398 316.081 89.5678 315.193C89.4718 314.401 89.4238 313.249 89.4238 311.737L89.4598 307.777C89.4838 306.817 89.4958 305.293 89.4958 303.205L89.3878 303.097H85.8238C85.2958 303.097 84.9478 302.497 84.7798 301.297C84.6838 300.649 84.6358 299.701 84.6358 298.453V297.985C84.6838 297.817 84.7078 297.553 84.7078 297.193V296.473L84.7438 296.185L84.8878 296.041L85.5358 296.077H86.2558C87.3118 296.077 88.1158 296.065 88.6678 296.041H91.0078H91.6558H92.8798H94.4278H95.9758C96.2878 296.065 96.7318 296.077 97.3078 296.077H98.2078C98.3038 296.029 98.4598 296.005 98.6758 296.005C98.8438 295.957 98.9998 295.933 99.1438 295.933C99.5998 295.933 99.9478 295.957 100.188 296.005C100.668 296.053 101.028 296.077 101.268 296.077L102.204 296.041H103.608C104.328 296.041 104.82 296.053 105.084 296.077L105.588 296.113C105.612 296.137 105.648 296.173 105.696 296.221C105.744 296.245 105.768 296.269 105.768 296.293V302.413C105.768 302.557 105.684 302.713 105.516 302.881C105.372 303.049 105.228 303.157 105.084 303.205C104.292 303.037 103.26 302.953 101.988 302.953H100.62C100.26 302.953 100.02 303.409 99.8998 304.321C99.8518 304.585 99.8278 304.969 99.8278 305.473V306.553C99.8278 307.033 99.8398 307.393 99.8638 307.633V308.641C99.8638 309.625 99.8158 310.537 99.7198 311.377C99.6718 312.001 99.6478 312.457 99.6478 312.745C99.5998 313.033 99.5758 313.429 99.5758 313.933C99.5758 314.653 99.5518 315.253 99.5038 315.733C99.4798 316.477 99.2038 316.873 98.6758 316.921C98.0998 316.993 97.7638 317.029 97.6678 317.029H95.9038ZM119.567 317.821C119.375 317.821 119.111 317.797 118.775 317.749C118.607 317.701 118.343 317.677 117.983 317.677C117.071 317.677 115.943 317.473 114.599 317.065H114.347C114.179 317.065 113.999 317.017 113.807 316.921C113.759 316.873 113.699 316.837 113.627 316.813C113.555 316.765 113.471 316.705 113.375 316.633L112.619 316.201C111.899 315.793 111.263 315.229 110.711 314.509C110.159 313.765 109.715 312.949 109.379 312.061C108.731 310.429 108.407 308.761 108.407 307.057C108.407 305.161 108.791 303.337 109.559 301.585C110.375 299.737 111.467 298.273 112.835 297.193C114.347 295.993 116.027 295.393 117.875 295.393C118.451 295.393 118.895 295.417 119.207 295.465C119.207 295.417 119.243 295.393 119.315 295.393H119.423C121.103 295.393 122.603 295.453 123.923 295.573C125.051 295.741 126.095 296.089 127.055 296.617C128.975 297.889 130.355 299.281 131.195 300.793C132.083 302.473 132.527 304.453 132.527 306.733C132.527 309.013 131.987 311.149 130.907 313.141L130.547 313.717C130.451 313.861 130.391 313.933 130.367 313.933L130.259 314.113L130.007 314.257C128.975 315.793 127.415 316.837 125.327 317.389C123.935 317.677 122.015 317.821 119.567 317.821ZM120.179 315.121C120.395 315.121 120.563 314.989 120.683 314.725C120.971 314.293 121.211 313.453 121.403 312.205C121.427 311.989 121.487 311.509 121.583 310.765C121.679 310.021 121.739 309.325 121.763 308.677C121.859 307.045 121.907 306.037 121.907 305.653V304.825V304.537C121.907 303.673 121.871 302.929 121.799 302.305C121.727 301.321 121.583 300.541 121.367 299.965C121.151 299.677 120.983 299.533 120.863 299.533C120.623 299.533 120.395 299.713 120.179 300.073C119.963 300.433 119.795 301.093 119.675 302.053L118.919 307.813V308.533V309.001C118.991 310.009 119.027 310.669 119.027 310.981L119.099 311.845L119.207 312.997C119.207 313.189 119.231 313.357 119.279 313.501L119.675 314.833C119.699 314.929 119.759 315.001 119.855 315.049C119.975 315.097 120.083 315.121 120.179 315.121ZM147.024 317.317C146.52 317.317 146.196 316.849 146.052 315.913C145.98 315.505 145.944 315.133 145.944 314.797V314.005C145.872 313.213 145.836 312.445 145.836 311.701C145.74 309.493 145.656 307.933 145.584 307.021C145.584 306.613 145.56 306.181 145.512 305.725C145.464 305.245 145.428 304.909 145.404 304.717V293.341C145.404 293.125 145.488 292.993 145.656 292.945H145.872L145.98 292.981C146.82 292.981 147.924 292.945 149.292 292.873C151.116 292.825 152.64 292.801 153.864 292.801H154.224C154.368 292.825 154.608 292.837 154.944 292.837H155.592H155.952C156.672 292.837 157.236 292.849 157.644 292.873H161.352C161.808 292.921 162.552 292.945 163.584 292.945C163.776 292.945 163.92 292.957 164.016 292.981C164.208 293.029 164.424 293.053 164.664 293.053C164.76 293.053 164.856 293.017 164.952 292.945C165.504 292.945 165.804 293.449 165.852 294.457C165.9 294.793 165.924 295.045 165.924 295.213C165.924 295.357 165.9 295.645 165.852 296.077C165.828 296.461 165.816 297.073 165.816 297.913C165.816 298.177 165.588 298.333 165.132 298.381C165.012 298.405 164.808 298.417 164.52 298.417H164.016H162.396L161.316 298.453C161.076 298.525 160.704 298.561 160.2 298.561C159.696 298.561 159.408 298.549 159.336 298.525C159.264 298.549 159.204 298.573 159.156 298.597C159.132 298.621 159.108 298.633 159.084 298.633C159.084 298.681 159.072 298.729 159.048 298.777C159.024 298.825 159.012 298.897 159.012 298.993C158.988 299.161 158.928 299.785 158.832 300.865C158.808 301.177 158.796 301.729 158.796 302.521L158.76 302.593C158.76 302.689 158.808 302.797 158.904 302.917H163.224C163.512 302.917 163.716 302.953 163.836 303.025C163.98 303.097 164.088 303.229 164.16 303.421C164.256 303.709 164.304 304.453 164.304 305.653V307.381V308.353C164.256 308.569 164.184 308.713 164.088 308.785C164.016 308.857 163.908 308.893 163.764 308.893C163.572 308.893 163.392 308.917 163.224 308.965L161.604 309.073H160.884C160.524 309.073 160.284 309.097 160.164 309.145C159.996 309.193 159.768 309.229 159.48 309.253H158.976C158.592 309.253 158.328 309.301 158.184 309.397C158.064 309.421 157.944 309.541 157.824 309.757C157.824 311.941 157.8 313.429 157.752 314.221C157.728 315.373 157.608 316.213 157.392 316.741C156.96 316.741 156.336 316.765 155.52 316.813C155.136 316.813 154.884 316.837 154.764 316.885H154.404H154.332C154.236 316.885 154.164 316.873 154.116 316.849C154.068 316.825 154.02 316.813 153.972 316.813L153.864 316.777C153.864 316.753 153.816 316.741 153.72 316.741C153.696 316.741 153.648 316.753 153.576 316.777C153.528 316.801 153.48 316.837 153.432 316.885H150.444C150.42 316.909 150.36 316.921 150.264 316.921C150.192 316.945 150.084 316.981 149.94 317.029L147.744 317.281L147.024 317.317ZM185.908 317.317C184.852 316.285 183.952 315.241 183.208 314.185C182.68 313.489 181.864 312.253 180.76 310.477L180.148 309.505C180.124 309.481 180.1 309.469 180.076 309.469C180.076 309.445 180.076 309.433 180.076 309.433H179.896L179.752 309.505C179.728 309.817 179.716 310.657 179.716 312.025C179.716 312.913 179.668 313.957 179.572 315.157L179.536 316.237C179.44 316.501 179.38 316.633 179.356 316.633H179.104H178.996C176.356 316.825 174.436 316.921 173.236 316.921H172.696H172.012C171.748 316.921 171.556 316.909 171.436 316.885H171.184L170.068 316.525L169.996 316.273C169.948 316.273 169.912 316.225 169.888 316.129C169.888 316.033 169.888 315.961 169.888 315.913C169.816 314.905 169.756 314.173 169.708 313.717C169.611 312.421 169.552 311.473 169.528 310.873C169.48 310.297 169.456 309.925 169.456 309.757L169.276 307.777L169.24 306.697C169.216 306.481 169.204 306.181 169.204 305.797V305.473C169.252 305.353 169.276 305.161 169.276 304.897V304.285C169.3 304.189 169.312 304.081 169.312 303.961L169.276 303.673V303.313C169.276 303.145 169.252 303.013 169.204 302.917V302.701L169.24 301.801C169.264 301.633 169.276 301.381 169.276 301.045C169.324 300.325 169.348 299.641 169.348 298.993V298.633C169.324 298.561 169.312 298.405 169.312 298.165V297.661V297.301C169.24 297.229 169.204 297.157 169.204 297.085C169.204 296.749 169.504 296.509 170.104 296.365C170.416 296.269 170.86 296.221 171.436 296.221C177.052 296.221 181.252 296.413 184.036 296.797C186.772 297.181 188.692 297.841 189.796 298.777C190.276 299.233 190.612 299.773 190.804 300.397C191.02 300.997 191.128 301.717 191.128 302.557C191.128 303.901 190.744 305.029 189.976 305.941C189.472 306.445 188.884 306.865 188.212 307.201C188.356 307.561 188.776 308.281 189.472 309.361C189.616 309.529 189.748 309.709 189.868 309.901C190.012 310.093 190.18 310.297 190.372 310.513C190.828 311.137 191.356 311.821 191.956 312.565C191.98 312.661 192.076 312.865 192.244 313.177C192.364 313.225 192.424 313.285 192.424 313.357C192.448 313.405 192.436 313.477 192.388 313.573C192.196 313.861 191.632 314.281 190.696 314.833C190.576 314.953 190.432 315.073 190.264 315.193C189.784 315.577 189.124 315.973 188.284 316.381C187.516 316.789 186.856 317.077 186.304 317.245C186.088 317.365 185.956 317.389 185.908 317.317ZM179.356 304.645C179.668 304.645 180.088 304.585 180.616 304.465C181.12 304.321 181.48 304.177 181.696 304.033C182.056 303.817 182.368 303.577 182.632 303.313C182.896 303.001 183.028 302.641 183.028 302.233C183.028 301.561 182.824 301.021 182.416 300.613C182.056 300.325 181.612 300.181 181.084 300.181H179.536C179.536 300.493 179.512 300.985 179.464 301.657L179.428 302.413C179.38 302.893 179.356 303.637 179.356 304.645ZM196.636 316.957C196.18 316.957 196 316.549 196.096 315.733C196.096 315.445 196.156 315.121 196.276 314.761C196.276 314.593 196.288 314.461 196.312 314.365C196.336 314.245 196.348 314.149 196.348 314.077C196.9 311.461 197.512 308.881 198.184 306.337L200.632 296.761C200.632 296.713 200.668 296.653 200.74 296.581C200.812 296.509 200.884 296.449 200.956 296.401H201.208C201.496 296.401 201.724 296.365 201.892 296.293C202.036 296.269 202.288 296.257 202.648 296.257C203.224 296.257 203.656 296.269 203.944 296.293C204.376 296.365 204.82 296.401 205.276 296.401L207.148 296.365C207.34 296.317 207.568 296.293 207.832 296.293L209.416 296.221H210.604C211.06 296.221 211.504 296.233 211.936 296.257H212.944C213.184 296.281 213.532 296.293 213.988 296.293H215.355C215.428 296.293 215.5 296.305 215.572 296.329C215.644 296.353 215.704 296.377 215.752 296.401C215.848 296.449 215.968 296.473 216.112 296.473H216.436C216.604 296.593 216.688 296.713 216.688 296.833L219.244 306.337C220.036 309.385 220.66 311.965 221.116 314.077C221.116 314.197 221.152 314.425 221.224 314.761C221.32 315.241 221.368 315.625 221.368 315.913C221.368 316.081 221.344 316.309 221.296 316.597C221.176 316.837 221.008 316.957 220.792 316.957H220.396C220.084 316.957 219.844 316.945 219.676 316.921H218.884H218.128H217.516C217.348 316.921 217.252 316.909 217.228 316.885H215.248L215.212 316.813C215.164 316.765 215.092 316.741 214.996 316.741L214.888 316.813C214.888 316.861 214.864 316.885 214.816 316.885H214.708H214.456C214.336 316.837 214.12 316.813 213.808 316.813C213.232 316.765 212.752 316.741 212.367 316.741C212.104 316.189 211.792 314.977 211.432 313.105C210.928 313.177 210.352 313.213 209.704 313.213H208.768H207.868C207.772 313.573 207.712 313.873 207.688 314.113C207.664 314.233 207.568 314.641 207.4 315.337C207.232 316.033 207.076 316.501 206.932 316.741L206.716 316.813C206.644 316.837 206.584 316.861 206.536 316.885C206.488 316.885 206.464 316.885 206.464 316.885H206.392C206.248 316.885 206.152 316.861 206.104 316.813C206.008 316.765 205.948 316.741 205.924 316.741L204.556 316.813H203.548C203.428 316.837 203.332 316.861 203.26 316.885C203.188 316.885 203.14 316.885 203.116 316.885H200.236H199.948C199.732 316.909 199.288 316.921 198.616 316.921H197.752C197.608 316.945 197.38 316.957 197.068 316.957H196.636ZM211.108 309.253C210.964 308.437 210.88 307.957 210.856 307.813L210.568 306.085C210.52 305.749 210.472 305.449 210.424 305.185C210.376 304.897 210.34 304.633 210.316 304.393C210.244 304.105 210.184 303.841 210.136 303.601C210.112 303.337 210.076 303.097 210.028 302.881C210.004 302.737 209.98 302.557 209.956 302.341C209.932 302.101 209.896 301.933 209.848 301.837L209.776 301.405C209.776 301.309 209.752 301.225 209.704 301.153L209.668 300.937C209.62 301.081 209.596 301.153 209.596 301.153V301.297V301.405C209.596 301.429 209.584 301.477 209.56 301.549C209.536 301.597 209.512 301.693 209.488 301.837C209.464 301.957 209.44 302.113 209.416 302.305C209.392 302.473 209.356 302.665 209.308 302.881L209.056 304.357L208.768 306.013L208.66 306.805C208.612 306.997 208.564 307.309 208.516 307.741C208.3 308.821 208.204 309.313 208.228 309.217H209.812C209.836 309.193 209.872 309.169 209.92 309.145C209.968 309.097 210.004 309.073 210.028 309.073H210.136C210.256 309.073 210.352 309.085 210.424 309.109C210.52 309.133 210.604 309.157 210.676 309.181C210.82 309.229 210.964 309.253 211.108 309.253ZM228.95 317.029C228.734 317.029 228.566 317.005 228.446 316.957H227.798H227.258H227.006L225.638 316.633L225.53 316.381V316.021L225.494 315.049C225.446 314.617 225.422 314.245 225.422 313.933L225.386 311.197C225.362 310.933 225.35 310.573 225.35 310.117C225.35 309.013 225.386 307.945 225.458 306.913C225.506 306.241 225.53 305.161 225.53 303.673C225.53 303.433 225.506 303.229 225.458 303.061V302.701L225.422 302.485C225.422 301.933 225.458 301.393 225.53 300.865L225.566 298.957L225.53 298.093V297.265C225.458 297.193 225.422 297.109 225.422 297.013C225.422 296.653 225.71 296.389 226.286 296.221C226.622 296.125 227.042 296.077 227.546 296.077H232.802L235.25 296.113C235.25 296.113 235.262 296.125 235.286 296.149C235.334 296.173 235.382 296.209 235.43 296.257C235.622 296.449 235.814 296.701 236.006 297.013C236.222 297.373 236.402 297.757 236.546 298.165C236.714 298.645 237.038 299.485 237.518 300.685C237.902 301.669 238.226 302.449 238.49 303.025C238.682 303.649 238.898 303.961 239.138 303.961C239.354 303.961 239.522 303.805 239.642 303.493C239.69 303.445 239.762 303.289 239.858 303.025L240.434 301.693C240.482 301.597 240.65 301.237 240.938 300.613C241.01 300.493 241.214 300.061 241.55 299.317L242.09 298.165C242.138 298.021 242.21 297.841 242.306 297.625C242.402 297.409 242.51 297.205 242.63 297.013C242.87 296.629 243.062 296.377 243.206 296.257C243.254 296.161 243.326 296.113 243.422 296.113L245.87 296.077H251.09H251.522H251.846H252.278C252.374 296.101 252.59 296.113 252.926 296.113C252.95 296.113 252.998 296.269 253.07 296.581C253.142 297.805 253.178 298.789 253.178 299.533C253.226 300.445 253.25 301.825 253.25 303.673V305.473C253.25 306.553 253.154 308.101 252.962 310.117V311.197C252.986 311.509 252.998 311.941 252.998 312.493L253.034 314.005C253.058 314.293 253.07 314.677 253.07 315.157C253.07 315.589 253.082 315.877 253.106 316.021V316.381L252.998 316.633L251.63 316.957H251.342H250.838H250.226C250.082 317.005 249.902 317.029 249.686 317.029C248.75 317.029 247.79 316.993 246.806 316.921C245.822 316.825 245.21 316.765 244.97 316.741L244.826 316.777H244.646C244.502 316.777 244.43 316.549 244.43 316.093C244.31 315.469 244.25 314.089 244.25 311.953C244.202 311.353 244.178 310.537 244.178 309.505C244.178 309.337 244.094 309.253 243.926 309.253C243.854 309.253 243.782 309.349 243.71 309.541C243.35 310.405 243.134 310.945 243.062 311.161L242.81 311.917L242.522 312.493C242.09 313.453 241.622 314.197 241.118 314.725C240.806 315.037 240.482 315.193 240.146 315.193H239.678H239.03C238.718 315.193 238.49 315.181 238.346 315.157C238.082 315.157 237.89 315.145 237.77 315.121C236.93 313.825 236.15 312.397 235.43 310.837C235.334 310.549 235.238 310.309 235.142 310.117C235.07 309.925 235.01 309.757 234.962 309.613C234.794 309.373 234.71 309.253 234.71 309.253C234.542 309.253 234.458 309.337 234.458 309.505V310.945C234.458 312.409 234.446 313.465 234.422 314.113C234.422 315.145 234.35 315.913 234.206 316.417C234.182 316.513 234.146 316.597 234.098 316.669C234.074 316.741 234.038 316.777 233.99 316.777H233.81L233.666 316.741C233.45 316.765 232.85 316.825 231.866 316.921C230.906 316.993 229.934 317.029 228.95 317.029ZM258.745 316.777C258.697 316.777 258.661 316.729 258.637 316.633C258.469 316.417 258.349 316.153 258.277 315.841C258.205 315.721 258.145 315.565 258.097 315.373C257.881 314.941 257.725 314.341 257.629 313.573C257.533 312.469 257.485 311.593 257.485 310.945C257.461 310.657 257.449 310.261 257.449 309.757V308.893C257.449 308.173 257.437 307.609 257.413 307.201C257.389 306.769 257.377 305.917 257.377 304.645C257.377 301.237 257.449 298.609 257.593 296.761C257.593 296.473 258.001 296.257 258.817 296.113H259.897H260.797C262.165 296.113 263.185 296.137 263.857 296.185C264.865 296.257 265.885 296.293 266.917 296.293C267.157 296.293 267.337 296.281 267.457 296.257H267.997L268.177 296.401C268.969 296.233 269.785 296.125 270.625 296.077C271.465 296.029 272.485 296.005 273.685 296.005C273.733 296.005 273.793 296.041 273.865 296.113H275.017C275.209 296.113 275.353 296.221 275.449 296.437C275.569 296.653 275.665 296.965 275.737 297.373C275.833 297.685 275.905 298.069 275.953 298.525C276.049 299.125 276.133 299.521 276.205 299.713C276.205 300.385 276.085 300.721 275.845 300.721C275.821 300.721 275.785 300.685 275.737 300.613L275.593 300.577C275.473 300.553 275.341 300.565 275.197 300.613C275.053 300.685 274.897 300.721 274.729 300.721C274.585 300.721 274.465 300.685 274.369 300.613C274.321 300.589 274.213 300.577 274.045 300.577C273.829 300.577 273.577 300.613 273.289 300.685C273.193 300.709 273.001 300.745 272.713 300.793C272.449 300.841 272.137 300.865 271.777 300.865C270.745 300.865 270.001 300.889 269.545 300.937C269.281 300.961 269.029 301.033 268.789 301.153V301.081C268.693 301.081 268.609 301.201 268.537 301.441C268.369 301.849 268.261 302.413 268.213 303.133C268.189 303.349 268.177 303.589 268.177 303.853C268.177 304.117 268.213 304.297 268.285 304.393C268.381 304.489 268.525 304.537 268.717 304.537C268.861 304.537 268.981 304.489 269.077 304.393C269.125 304.393 269.185 304.405 269.257 304.429C269.329 304.453 269.389 304.489 269.437 304.537H272.497C272.521 304.489 272.557 304.453 272.605 304.429C272.653 304.405 272.701 304.393 272.749 304.393C272.989 304.393 273.169 304.429 273.289 304.501C273.433 304.573 273.721 304.645 274.153 304.717C274.393 304.717 274.561 304.789 274.657 304.933C274.777 305.101 274.837 305.257 274.837 305.401L275.593 307.777C275.665 308.161 275.305 308.413 274.513 308.533C274.057 308.629 273.181 308.677 271.885 308.677H270.337H269.257C268.921 308.677 268.669 308.701 268.501 308.749C268.333 308.773 268.225 308.857 268.177 309.001C268.081 309.121 268.033 309.313 268.033 309.577V309.721C268.033 309.841 268.045 309.925 268.069 309.973L268.033 310.765C268.009 310.933 267.997 311.185 267.997 311.521V311.881V312.205V312.421C269.077 312.421 270.181 312.385 271.309 312.313C272.413 312.241 273.505 312.205 274.585 312.205C274.657 312.205 274.717 312.265 274.765 312.385C274.813 312.481 274.837 312.601 274.837 312.745C274.885 312.889 274.909 313.045 274.909 313.213C274.957 313.573 275.029 313.909 275.125 314.221L275.377 315.265V315.985V316.093V316.381L275.089 316.633H274.837H274.729C274.465 316.633 274.297 316.621 274.225 316.597C274.153 316.549 274.069 316.525 273.973 316.525C273.925 316.549 273.853 316.585 273.757 316.633C273.661 316.681 273.577 316.729 273.505 316.777V316.597L273.073 316.633H272.533C272.437 316.633 272.365 316.609 272.317 316.561L272.029 316.525C271.141 316.525 270.517 316.609 270.157 316.777H258.745Z" fill="white"/>
</svg>
